ISO-10303-21;
HEADER;
/* Generated by software containing ST-Developer
 * from STEP Tools, Inc. (www.steptools.com) 
 */

FILE_DESCRIPTION(
/* description */ (''),
/* implementation_level */ '2;1');

FILE_NAME(
/* name */ 'D:\\RABOTA\\Zakazi\\3D\\HM11\\128X64_LCD_LED\\128X64_LCD_L
ED.stp',
/* time_stamp */ '2016-03-03T11:18:49+02:00',
/* author */ ('Oleg'),
/* organization */ (''),
/* preprocessor_version */ 'ST-DEVELOPER v15.2',
/* originating_system */ 'Autodesk Inventor 2014',
/* authorisation */ '');

FILE_SCHEMA (('AUTOMOTIVE_DESIGN { 1 0 10303 214 3 1 1 }'));
ENDSEC;

DATA;
#10=MECHANICAL_DESIGN_GEOMETRIC_PRESENTATION_REPRESENTATION('',(#863,#885,
#909,#867,#901,#847,#897,#880,#861,#849,#856,#910,#882,#911,#903,#887,#876,
#872,#862,#877,#918,#874,#869,#893,#917,#873,#845,#894,#892,#907,#881,#899,
#890,#853,#904,#898,#864,#878,#852,#857,#870,#896,#866,#860,#859,#879,#912,
#884,#865,#871,#844,#886,#891,#854,#905,#913,#846,#851,#848,#850,#895,#883,
#858,#889,#914,#888,#900,#908,#915,#855,#843,#902,#916,#906,#868,#875),
#1734);
#11=ITEM_DEFINED_TRANSFORMATION($,$,#1007,#1120);
#12=ITEM_DEFINED_TRANSFORMATION($,$,#1022,#1121);
#13=ITEM_DEFINED_TRANSFORMATION($,$,#1029,#1122);
#14=ITEM_DEFINED_TRANSFORMATION($,$,#1036,#1123);
#15=(
REPRESENTATION_RELATIONSHIP($,$,#1755,#1759)
REPRESENTATION_RELATIONSHIP_WITH_TRANSFORMATION(#11)
SHAPE_REPRESENTATION_RELATIONSHIP()
);
#16=(
REPRESENTATION_RELATIONSHIP($,$,#1756,#1759)
REPRESENTATION_RELATIONSHIP_WITH_TRANSFORMATION(#12)
SHAPE_REPRESENTATION_RELATIONSHIP()
);
#17=(
REPRESENTATION_RELATIONSHIP($,$,#1757,#1759)
REPRESENTATION_RELATIONSHIP_WITH_TRANSFORMATION(#13)
SHAPE_REPRESENTATION_RELATIONSHIP()
);
#18=(
REPRESENTATION_RELATIONSHIP($,$,#1758,#1759)
REPRESENTATION_RELATIONSHIP_WITH_TRANSFORMATION(#14)
SHAPE_REPRESENTATION_RELATIONSHIP()
);
#19=CONTEXT_DEPENDENT_SHAPE_REPRESENTATION(#15,#1751);
#20=CONTEXT_DEPENDENT_SHAPE_REPRESENTATION(#16,#1752);
#21=CONTEXT_DEPENDENT_SHAPE_REPRESENTATION(#17,#1753);
#22=CONTEXT_DEPENDENT_SHAPE_REPRESENTATION(#18,#1754);
#23=NEXT_ASSEMBLY_USAGE_OCCURRENCE('Plata:1',$,$,#1765,#1761,$);
#24=NEXT_ASSEMBLY_USAGE_OCCURRENCE('Ekran:1',$,$,#1765,#1762,$);
#25=NEXT_ASSEMBLY_USAGE_OCCURRENCE('DISPLEJ:1',$,$,#1765,#1763,$);
#26=NEXT_ASSEMBLY_USAGE_OCCURRENCE('HEDR:1',$,$,#1765,#1764,$);
#27=CIRCLE($,#1038,0.55);
#28=CIRCLE($,#1039,0.55);
#29=CIRCLE($,#1043,0.55);
#30=CIRCLE($,#1045,1.1);
#31=CIRCLE($,#1046,1.1);
#32=CIRCLE($,#1050,0.55);
#33=CIRCLE($,#1051,0.55);
#34=CIRCLE($,#1055,0.55);
#35=CIRCLE($,#1057,1.1);
#36=CIRCLE($,#1058,1.1);
#37=CIRCLE($,#1062,0.55);
#38=CIRCLE($,#1063,0.55);
#39=CIRCLE($,#1067,0.55);
#40=CIRCLE($,#1069,1.1);
#41=CIRCLE($,#1070,1.1);
#42=CIRCLE($,#1074,0.55);
#43=CIRCLE($,#1075,0.55);
#44=CIRCLE($,#1079,0.55);
#45=CIRCLE($,#1081,1.1);
#46=CIRCLE($,#1082,1.1);
#47=CIRCLE($,#1086,0.55);
#48=CIRCLE($,#1087,0.55);
#49=CIRCLE($,#1091,0.55);
#50=CIRCLE($,#1092,0.55);
#51=CIRCLE($,#1096,0.55);
#52=CIRCLE($,#1097,0.55);
#53=CIRCLE($,#1101,0.55);
#54=CIRCLE($,#1102,0.55);
#55=CIRCLE($,#1106,0.55);
#56=CIRCLE($,#1108,0.55);
#57=CIRCLE($,#1110,0.55);
#58=CIRCLE($,#1112,0.55);
#59=CYLINDRICAL_SURFACE($,#1037,0.55);
#60=CYLINDRICAL_SURFACE($,#1042,0.55);
#61=CYLINDRICAL_SURFACE($,#1044,1.1);
#62=CYLINDRICAL_SURFACE($,#1049,0.55);
#63=CYLINDRICAL_SURFACE($,#1054,0.55);
#64=CYLINDRICAL_SURFACE($,#1056,1.1);
#65=CYLINDRICAL_SURFACE($,#1061,0.55);
#66=CYLINDRICAL_SURFACE($,#1066,0.55);
#67=CYLINDRICAL_SURFACE($,#1068,1.1);
#68=CYLINDRICAL_SURFACE($,#1073,0.55);
#69=CYLINDRICAL_SURFACE($,#1078,0.55);
#70=CYLINDRICAL_SURFACE($,#1080,1.1);
#71=CYLINDRICAL_SURFACE($,#1085,0.55);
#72=CYLINDRICAL_SURFACE($,#1090,0.55);
#73=CYLINDRICAL_SURFACE($,#1095,0.55);
#74=CYLINDRICAL_SURFACE($,#1100,0.55);
#75=CYLINDRICAL_SURFACE($,#1105,0.55);
#76=CYLINDRICAL_SURFACE($,#1107,0.55);
#77=CYLINDRICAL_SURFACE($,#1109,0.55);
#78=CYLINDRICAL_SURFACE($,#1111,0.55);
#79=SHAPE_REPRESENTATION_RELATIONSHIP('SRR','None',#1755,#83);
#80=SHAPE_REPRESENTATION_RELATIONSHIP('SRR','None',#1756,#84);
#81=SHAPE_REPRESENTATION_RELATIONSHIP('SRR','None',#1757,#85);
#82=SHAPE_REPRESENTATION_RELATIONSHIP('SRR','None',#1758,#86);
#83=ADVANCED_BREP_SHAPE_REPRESENTATION($,(#999),#1729);
#84=ADVANCED_BREP_SHAPE_REPRESENTATION($,(#1000),#1730);
#85=ADVANCED_BREP_SHAPE_REPRESENTATION($,(#1001),#1731);
#86=ADVANCED_BREP_SHAPE_REPRESENTATION($,(#1002,#1003,#1004,#1005,#1006),
#1732);
#87=FACE_BOUND($,#355,.T.);
#88=FACE_BOUND($,#356,.T.);
#89=FACE_BOUND($,#357,.T.);
#90=FACE_BOUND($,#358,.T.);
#91=FACE_BOUND($,#359,.T.);
#92=FACE_BOUND($,#360,.T.);
#93=FACE_BOUND($,#361,.T.);
#94=FACE_BOUND($,#362,.T.);
#95=FACE_BOUND($,#363,.T.);
#96=FACE_BOUND($,#364,.T.);
#97=FACE_BOUND($,#378,.T.);
#98=FACE_BOUND($,#382,.T.);
#99=FACE_BOUND($,#384,.T.);
#100=FACE_BOUND($,#385,.T.);
#101=FACE_BOUND($,#386,.T.);
#102=FACE_BOUND($,#387,.T.);
#103=FACE_BOUND($,#388,.T.);
#104=FACE_BOUND($,#390,.T.);
#105=FACE_BOUND($,#394,.T.);
#106=FACE_BOUND($,#396,.T.);
#107=FACE_BOUND($,#397,.T.);
#108=FACE_BOUND($,#398,.T.);
#109=FACE_BOUND($,#399,.T.);
#110=FACE_BOUND($,#400,.T.);
#111=FACE_BOUND($,#402,.T.);
#112=FACE_BOUND($,#406,.T.);
#113=FACE_BOUND($,#408,.T.);
#114=FACE_BOUND($,#409,.T.);
#115=FACE_BOUND($,#410,.T.);
#116=FACE_BOUND($,#411,.T.);
#117=FACE_BOUND($,#412,.T.);
#118=FACE_BOUND($,#414,.T.);
#119=FACE_BOUND($,#418,.T.);
#120=FACE_BOUND($,#420,.T.);
#121=FACE_BOUND($,#421,.T.);
#122=FACE_BOUND($,#422,.T.);
#123=FACE_BOUND($,#423,.T.);
#124=FACE_BOUND($,#424,.T.);
#125=FACE_BOUND($,#426,.T.);
#126=FACE_BOUND($,#430,.T.);
#127=FACE_BOUND($,#434,.T.);
#128=FACE_BOUND($,#438,.T.);
#129=FACE_BOUND($,#442,.T.);
#130=FACE_BOUND($,#444,.T.);
#131=FACE_BOUND($,#446,.T.);
#132=FACE_BOUND($,#448,.T.);
#133=FACE_BOUND($,#453,.T.);
#134=FACE_BOUND($,#454,.T.);
#135=FACE_BOUND($,#455,.T.);
#136=FACE_BOUND($,#456,.T.);
#137=FACE_BOUND($,#457,.T.);
#138=FACE_BOUND($,#458,.T.);
#139=FACE_BOUND($,#459,.T.);
#140=FACE_BOUND($,#460,.T.);
#141=FACE_BOUND($,#461,.T.);
#142=FACE_BOUND($,#462,.T.);
#143=LINE($,#1506,#191);
#144=LINE($,#1508,#192);
#145=LINE($,#1510,#193);
#146=LINE($,#1511,#194);
#147=LINE($,#1514,#195);
#148=LINE($,#1516,#196);
#149=LINE($,#1517,#197);
#150=LINE($,#1520,#198);
#151=LINE($,#1522,#199);
#152=LINE($,#1523,#200);
#153=LINE($,#1525,#201);
#154=LINE($,#1526,#202);
#155=LINE($,#1533,#203);
#156=LINE($,#1535,#204);
#157=LINE($,#1537,#205);
#158=LINE($,#1538,#206);
#159=LINE($,#1541,#207);
#160=LINE($,#1543,#208);
#161=LINE($,#1544,#209);
#162=LINE($,#1547,#210);
#163=LINE($,#1549,#211);
#164=LINE($,#1550,#212);
#165=LINE($,#1552,#213);
#166=LINE($,#1553,#214);
#167=LINE($,#1560,#215);
#168=LINE($,#1562,#216);
#169=LINE($,#1564,#217);
#170=LINE($,#1565,#218);
#171=LINE($,#1568,#219);
#172=LINE($,#1570,#220);
#173=LINE($,#1571,#221);
#174=LINE($,#1574,#222);
#175=LINE($,#1576,#223);
#176=LINE($,#1577,#224);
#177=LINE($,#1579,#225);
#178=LINE($,#1580,#226);
#179=LINE($,#1695,#227);
#180=LINE($,#1697,#228);
#181=LINE($,#1699,#229);
#182=LINE($,#1700,#230);
#183=LINE($,#1703,#231);
#184=LINE($,#1705,#232);
#185=LINE($,#1706,#233);
#186=LINE($,#1709,#234);
#187=LINE($,#1711,#235);
#188=LINE($,#1712,#236);
#189=LINE($,#1714,#237);
#190=LINE($,#1715,#238);
#191=VECTOR($,#1144,27.2);
#192=VECTOR($,#1145,1.);
#193=VECTOR($,#1146,27.2);
#194=VECTOR($,#1147,1.);
#195=VECTOR($,#1150,27.);
#196=VECTOR($,#1151,27.);
#197=VECTOR($,#1152,1.);
#198=VECTOR($,#1155,27.2);
#199=VECTOR($,#1156,27.2);
#200=VECTOR($,#1157,1.);
#201=VECTOR($,#1160,27.);
#202=VECTOR($,#1161,27.);
#203=VECTOR($,#1170,19.5);
#204=VECTOR($,#1171,1.5);
#205=VECTOR($,#1172,19.5);
#206=VECTOR($,#1173,1.5);
#207=VECTOR($,#1176,27.);
#208=VECTOR($,#1177,27.);
#209=VECTOR($,#1178,1.5);
#210=VECTOR($,#1181,19.5);
#211=VECTOR($,#1182,19.5);
#212=VECTOR($,#1183,1.5);
#213=VECTOR($,#1186,27.);
#214=VECTOR($,#1187,27.);
#215=VECTOR($,#1196,15.);
#216=VECTOR($,#1197,0.35);
#217=VECTOR($,#1198,15.);
#218=VECTOR($,#1199,0.35);
#219=VECTOR($,#1202,26.2059993278367);
#220=VECTOR($,#1203,26.2059993278367);
#221=VECTOR($,#1204,0.35);
#222=VECTOR($,#1207,15.);
#223=VECTOR($,#1208,15.);
#224=VECTOR($,#1209,0.35);
#225=VECTOR($,#1212,26.2059993278367);
#226=VECTOR($,#1213,26.2059993278367);
#227=VECTOR($,#1374,2.54);
#228=VECTOR($,#1375,2.54);
#229=VECTOR($,#1376,2.54);
#230=VECTOR($,#1377,2.54);
#231=VECTOR($,#1380,10.16);
#232=VECTOR($,#1381,10.16);
#233=VECTOR($,#1382,2.54);
#234=VECTOR($,#1385,2.54);
#235=VECTOR($,#1386,2.54);
#236=VECTOR($,#1387,2.54);
#237=VECTOR($,#1390,10.16);
#238=VECTOR($,#1391,10.16);
#239=PLANE($,#1016);
#240=PLANE($,#1017);
#241=PLANE($,#1018);
#242=PLANE($,#1019);
#243=PLANE($,#1020);
#244=PLANE($,#1021);
#245=PLANE($,#1023);
#246=PLANE($,#1024);
#247=PLANE($,#1025);
#248=PLANE($,#1026);
#249=PLANE($,#1027);
#250=PLANE($,#1028);
#251=PLANE($,#1030);
#252=PLANE($,#1031);
#253=PLANE($,#1032);
#254=PLANE($,#1033);
#255=PLANE($,#1034);
#256=PLANE($,#1035);
#257=PLANE($,#1040);
#258=PLANE($,#1041);
#259=PLANE($,#1047);
#260=PLANE($,#1048);
#261=PLANE($,#1052);
#262=PLANE($,#1053);
#263=PLANE($,#1059);
#264=PLANE($,#1060);
#265=PLANE($,#1064);
#266=PLANE($,#1065);
#267=PLANE($,#1071);
#268=PLANE($,#1072);
#269=PLANE($,#1076);
#270=PLANE($,#1077);
#271=PLANE($,#1083);
#272=PLANE($,#1084);
#273=PLANE($,#1088);
#274=PLANE($,#1089);
#275=PLANE($,#1093);
#276=PLANE($,#1094);
#277=PLANE($,#1098);
#278=PLANE($,#1099);
#279=PLANE($,#1103);
#280=PLANE($,#1104);
#281=PLANE($,#1113);
#282=PLANE($,#1114);
#283=PLANE($,#1115);
#284=PLANE($,#1116);
#285=PLANE($,#1117);
#286=PLANE($,#1118);
#287=FACE_OUTER_BOUND($,#347,.T.);
#288=FACE_OUTER_BOUND($,#348,.T.);
#289=FACE_OUTER_BOUND($,#349,.T.);
#290=FACE_OUTER_BOUND($,#350,.T.);
#291=FACE_OUTER_BOUND($,#351,.T.);
#292=FACE_OUTER_BOUND($,#352,.T.);
#293=FACE_OUTER_BOUND($,#353,.T.);
#294=FACE_OUTER_BOUND($,#354,.T.);
#295=FACE_OUTER_BOUND($,#365,.T.);
#296=FACE_OUTER_BOUND($,#366,.T.);
#297=FACE_OUTER_BOUND($,#367,.T.);
#298=FACE_OUTER_BOUND($,#368,.T.);
#299=FACE_OUTER_BOUND($,#369,.T.);
#300=FACE_OUTER_BOUND($,#370,.T.);
#301=FACE_OUTER_BOUND($,#371,.T.);
#302=FACE_OUTER_BOUND($,#372,.T.);
#303=FACE_OUTER_BOUND($,#373,.T.);
#304=FACE_OUTER_BOUND($,#374,.T.);
#305=FACE_OUTER_BOUND($,#375,.T.);
#306=FACE_OUTER_BOUND($,#376,.T.);
#307=FACE_OUTER_BOUND($,#377,.T.);
#308=FACE_OUTER_BOUND($,#379,.T.);
#309=FACE_OUTER_BOUND($,#380,.T.);
#310=FACE_OUTER_BOUND($,#381,.T.);
#311=FACE_OUTER_BOUND($,#383,.T.);
#312=FACE_OUTER_BOUND($,#389,.T.);
#313=FACE_OUTER_BOUND($,#391,.T.);
#314=FACE_OUTER_BOUND($,#392,.T.);
#315=FACE_OUTER_BOUND($,#393,.T.);
#316=FACE_OUTER_BOUND($,#395,.T.);
#317=FACE_OUTER_BOUND($,#401,.T.);
#318=FACE_OUTER_BOUND($,#403,.T.);
#319=FACE_OUTER_BOUND($,#404,.T.);
#320=FACE_OUTER_BOUND($,#405,.T.);
#321=FACE_OUTER_BOUND($,#407,.T.);
#322=FACE_OUTER_BOUND($,#413,.T.);
#323=FACE_OUTER_BOUND($,#415,.T.);
#324=FACE_OUTER_BOUND($,#416,.T.);
#325=FACE_OUTER_BOUND($,#417,.T.);
#326=FACE_OUTER_BOUND($,#419,.T.);
#327=FACE_OUTER_BOUND($,#425,.T.);
#328=FACE_OUTER_BOUND($,#427,.T.);
#329=FACE_OUTER_BOUND($,#428,.T.);
#330=FACE_OUTER_BOUND($,#429,.T.);
#331=FACE_OUTER_BOUND($,#431,.T.);
#332=FACE_OUTER_BOUND($,#432,.T.);
#333=FACE_OUTER_BOUND($,#433,.T.);
#334=FACE_OUTER_BOUND($,#435,.T.);
#335=FACE_OUTER_BOUND($,#436,.T.);
#336=FACE_OUTER_BOUND($,#437,.T.);
#337=FACE_OUTER_BOUND($,#439,.T.);
#338=FACE_OUTER_BOUND($,#440,.T.);
#339=FACE_OUTER_BOUND($,#441,.T.);
#340=FACE_OUTER_BOUND($,#443,.T.);
#341=FACE_OUTER_BOUND($,#445,.T.);
#342=FACE_OUTER_BOUND($,#447,.T.);
#343=FACE_OUTER_BOUND($,#449,.T.);
#344=FACE_OUTER_BOUND($,#450,.T.);
#345=FACE_OUTER_BOUND($,#451,.T.);
#346=FACE_OUTER_BOUND($,#452,.T.);
#347=EDGE_LOOP($,(#639,#640,#641,#642));
#348=EDGE_LOOP($,(#643,#644,#645,#646));
#349=EDGE_LOOP($,(#647,#648,#649,#650));
#350=EDGE_LOOP($,(#651,#652,#653,#654));
#351=EDGE_LOOP($,(#655,#656,#657,#658));
#352=EDGE_LOOP($,(#659,#660,#661,#662));
#353=EDGE_LOOP($,(#663,#664,#665,#666));
#354=EDGE_LOOP($,(#667,#668,#669,#670));
#355=EDGE_LOOP($,(#671));
#356=EDGE_LOOP($,(#672));
#357=EDGE_LOOP($,(#673));
#358=EDGE_LOOP($,(#674));
#359=EDGE_LOOP($,(#675,#676,#677,#678));
#360=EDGE_LOOP($,(#679));
#361=EDGE_LOOP($,(#680));
#362=EDGE_LOOP($,(#681));
#363=EDGE_LOOP($,(#682));
#364=EDGE_LOOP($,(#683,#684,#685,#686));
#365=EDGE_LOOP($,(#687,#688,#689,#690));
#366=EDGE_LOOP($,(#691,#692,#693,#694));
#367=EDGE_LOOP($,(#695,#696,#697,#698));
#368=EDGE_LOOP($,(#699,#700,#701,#702));
#369=EDGE_LOOP($,(#703,#704,#705,#706));
#370=EDGE_LOOP($,(#707,#708,#709,#710));
#371=EDGE_LOOP($,(#711,#712,#713,#714));
#372=EDGE_LOOP($,(#715,#716,#717,#718));
#373=EDGE_LOOP($,(#719,#720,#721,#722));
#374=EDGE_LOOP($,(#723,#724,#725,#726));
#375=EDGE_LOOP($,(#727,#728,#729,#730));
#376=EDGE_LOOP($,(#731,#732,#733,#734));
#377=EDGE_LOOP($,(#735));
#378=EDGE_LOOP($,(#736));
#379=EDGE_LOOP($,(#737));
#380=EDGE_LOOP($,(#738));
#381=EDGE_LOOP($,(#739));
#382=EDGE_LOOP($,(#740));
#383=EDGE_LOOP($,(#741));
#384=EDGE_LOOP($,(#742));
#385=EDGE_LOOP($,(#743));
#386=EDGE_LOOP($,(#744));
#387=EDGE_LOOP($,(#745));
#388=EDGE_LOOP($,(#746));
#389=EDGE_LOOP($,(#747));
#390=EDGE_LOOP($,(#748));
#391=EDGE_LOOP($,(#749));
#392=EDGE_LOOP($,(#750));
#393=EDGE_LOOP($,(#751));
#394=EDGE_LOOP($,(#752));
#395=EDGE_LOOP($,(#753));
#396=EDGE_LOOP($,(#754));
#397=EDGE_LOOP($,(#755));
#398=EDGE_LOOP($,(#756));
#399=EDGE_LOOP($,(#757));
#400=EDGE_LOOP($,(#758));
#401=EDGE_LOOP($,(#759));
#402=EDGE_LOOP($,(#760));
#403=EDGE_LOOP($,(#761));
#404=EDGE_LOOP($,(#762));
#405=EDGE_LOOP($,(#763));
#406=EDGE_LOOP($,(#764));
#407=EDGE_LOOP($,(#765));
#408=EDGE_LOOP($,(#766));
#409=EDGE_LOOP($,(#767));
#410=EDGE_LOOP($,(#768));
#411=EDGE_LOOP($,(#769));
#412=EDGE_LOOP($,(#770));
#413=EDGE_LOOP($,(#771));
#414=EDGE_LOOP($,(#772));
#415=EDGE_LOOP($,(#773));
#416=EDGE_LOOP($,(#774));
#417=EDGE_LOOP($,(#775));
#418=EDGE_LOOP($,(#776));
#419=EDGE_LOOP($,(#777));
#420=EDGE_LOOP($,(#778));
#421=EDGE_LOOP($,(#779));
#422=EDGE_LOOP($,(#780));
#423=EDGE_LOOP($,(#781));
#424=EDGE_LOOP($,(#782));
#425=EDGE_LOOP($,(#783));
#426=EDGE_LOOP($,(#784));
#427=EDGE_LOOP($,(#785));
#428=EDGE_LOOP($,(#786));
#429=EDGE_LOOP($,(#787));
#430=EDGE_LOOP($,(#788));
#431=EDGE_LOOP($,(#789));
#432=EDGE_LOOP($,(#790));
#433=EDGE_LOOP($,(#791));
#434=EDGE_LOOP($,(#792));
#435=EDGE_LOOP($,(#793));
#436=EDGE_LOOP($,(#794));
#437=EDGE_LOOP($,(#795));
#438=EDGE_LOOP($,(#796));
#439=EDGE_LOOP($,(#797));
#440=EDGE_LOOP($,(#798));
#441=EDGE_LOOP($,(#799));
#442=EDGE_LOOP($,(#800));
#443=EDGE_LOOP($,(#801));
#444=EDGE_LOOP($,(#802));
#445=EDGE_LOOP($,(#803));
#446=EDGE_LOOP($,(#804));
#447=EDGE_LOOP($,(#805));
#448=EDGE_LOOP($,(#806));
#449=EDGE_LOOP($,(#807,#808,#809,#810));
#450=EDGE_LOOP($,(#811,#812,#813,#814));
#451=EDGE_LOOP($,(#815,#816,#817,#818));
#452=EDGE_LOOP($,(#819,#820,#821,#822));
#453=EDGE_LOOP($,(#823));
#454=EDGE_LOOP($,(#824));
#455=EDGE_LOOP($,(#825));
#456=EDGE_LOOP($,(#826));
#457=EDGE_LOOP($,(#827,#828,#829,#830));
#458=EDGE_LOOP($,(#831));
#459=EDGE_LOOP($,(#832));
#460=EDGE_LOOP($,(#833));
#461=EDGE_LOOP($,(#834));
#462=EDGE_LOOP($,(#835,#836,#837,#838));
#463=B_SPLINE_CURVE_WITH_KNOTS($,1,(#1428,#1429),.UNSPECIFIED.,.F.,.F.,
(2,2),(0.,0.571428571428571),.UNSPECIFIED.);
#464=B_SPLINE_CURVE_WITH_KNOTS($,1,(#1452,#1453),.UNSPECIFIED.,.F.,.F.,
(2,2),(0.,0.571428571428571),.UNSPECIFIED.);
#465=B_SPLINE_CURVE_WITH_KNOTS($,1,(#1476,#1477),.UNSPECIFIED.,.F.,.F.,
(2,2),(0.,0.571428571428571),.UNSPECIFIED.);
#466=B_SPLINE_CURVE_WITH_KNOTS($,1,(#1500,#1501),.UNSPECIFIED.,.F.,.F.,
(2,2),(0.,0.571428571428571),.UNSPECIFIED.);
#467=ELLIPSE($,#1008,1.75,1.25);
#468=ELLIPSE($,#1009,1.75,1.25);
#469=ELLIPSE($,#1010,1.75,1.25);
#470=ELLIPSE($,#1011,1.75,1.25);
#471=ELLIPSE($,#1012,1.75,1.25);
#472=ELLIPSE($,#1013,1.75,1.25);
#473=ELLIPSE($,#1014,1.75,1.25);
#474=ELLIPSE($,#1015,1.75,1.25);
#475=VERTEX_POINT($,#1425);
#476=VERTEX_POINT($,#1427);
#477=VERTEX_POINT($,#1449);
#478=VERTEX_POINT($,#1451);
#479=VERTEX_POINT($,#1473);
#480=VERTEX_POINT($,#1475);
#481=VERTEX_POINT($,#1497);
#482=VERTEX_POINT($,#1499);
#483=VERTEX_POINT($,#1504);
#484=VERTEX_POINT($,#1505);
#485=VERTEX_POINT($,#1507);
#486=VERTEX_POINT($,#1509);
#487=VERTEX_POINT($,#1513);
#488=VERTEX_POINT($,#1515);
#489=VERTEX_POINT($,#1519);
#490=VERTEX_POINT($,#1521);
#491=VERTEX_POINT($,#1531);
#492=VERTEX_POINT($,#1532);
#493=VERTEX_POINT($,#1534);
#494=VERTEX_POINT($,#1536);
#495=VERTEX_POINT($,#1540);
#496=VERTEX_POINT($,#1542);
#497=VERTEX_POINT($,#1546);
#498=VERTEX_POINT($,#1548);
#499=VERTEX_POINT($,#1558);
#500=VERTEX_POINT($,#1559);
#501=VERTEX_POINT($,#1561);
#502=VERTEX_POINT($,#1563);
#503=VERTEX_POINT($,#1567);
#504=VERTEX_POINT($,#1569);
#505=VERTEX_POINT($,#1573);
#506=VERTEX_POINT($,#1575);
#507=VERTEX_POINT($,#1585);
#508=VERTEX_POINT($,#1587);
#509=VERTEX_POINT($,#1592);
#510=VERTEX_POINT($,#1595);
#511=VERTEX_POINT($,#1597);
#512=VERTEX_POINT($,#1602);
#513=VERTEX_POINT($,#1604);
#514=VERTEX_POINT($,#1609);
#515=VERTEX_POINT($,#1612);
#516=VERTEX_POINT($,#1614);
#517=VERTEX_POINT($,#1619);
#518=VERTEX_POINT($,#1621);
#519=VERTEX_POINT($,#1626);
#520=VERTEX_POINT($,#1629);
#521=VERTEX_POINT($,#1631);
#522=VERTEX_POINT($,#1636);
#523=VERTEX_POINT($,#1638);
#524=VERTEX_POINT($,#1643);
#525=VERTEX_POINT($,#1646);
#526=VERTEX_POINT($,#1648);
#527=VERTEX_POINT($,#1653);
#528=VERTEX_POINT($,#1655);
#529=VERTEX_POINT($,#1660);
#530=VERTEX_POINT($,#1662);
#531=VERTEX_POINT($,#1667);
#532=VERTEX_POINT($,#1669);
#533=VERTEX_POINT($,#1674);
#534=VERTEX_POINT($,#1676);
#535=VERTEX_POINT($,#1681);
#536=VERTEX_POINT($,#1684);
#537=VERTEX_POINT($,#1687);
#538=VERTEX_POINT($,#1690);
#539=VERTEX_POINT($,#1693);
#540=VERTEX_POINT($,#1694);
#541=VERTEX_POINT($,#1696);
#542=VERTEX_POINT($,#1698);
#543=VERTEX_POINT($,#1702);
#544=VERTEX_POINT($,#1704);
#545=VERTEX_POINT($,#1708);
#546=VERTEX_POINT($,#1710);
#547=EDGE_CURVE($,#475,#475,#467,.T.);
#548=EDGE_CURVE($,#475,#476,#463,.T.);
#549=EDGE_CURVE($,#476,#476,#468,.T.);
#550=EDGE_CURVE($,#477,#477,#469,.T.);
#551=EDGE_CURVE($,#477,#478,#464,.T.);
#552=EDGE_CURVE($,#478,#478,#470,.T.);
#553=EDGE_CURVE($,#479,#479,#471,.T.);
#554=EDGE_CURVE($,#479,#480,#465,.T.);
#555=EDGE_CURVE($,#480,#480,#472,.T.);
#556=EDGE_CURVE($,#481,#481,#473,.T.);
#557=EDGE_CURVE($,#481,#482,#466,.T.);
#558=EDGE_CURVE($,#482,#482,#474,.T.);
#559=EDGE_CURVE($,#483,#484,#143,.T.);
#560=EDGE_CURVE($,#483,#485,#144,.T.);
#561=EDGE_CURVE($,#486,#485,#145,.T.);
#562=EDGE_CURVE($,#484,#486,#146,.T.);
#563=EDGE_CURVE($,#484,#487,#147,.T.);
#564=EDGE_CURVE($,#488,#486,#148,.T.);
#565=EDGE_CURVE($,#487,#488,#149,.T.);
#566=EDGE_CURVE($,#487,#489,#150,.T.);
#567=EDGE_CURVE($,#490,#488,#151,.T.);
#568=EDGE_CURVE($,#489,#490,#152,.T.);
#569=EDGE_CURVE($,#489,#483,#153,.T.);
#570=EDGE_CURVE($,#485,#490,#154,.T.);
#571=EDGE_CURVE($,#491,#492,#155,.T.);
#572=EDGE_CURVE($,#491,#493,#156,.T.);
#573=EDGE_CURVE($,#494,#493,#157,.T.);
#574=EDGE_CURVE($,#492,#494,#158,.T.);
#575=EDGE_CURVE($,#492,#495,#159,.T.);
#576=EDGE_CURVE($,#496,#494,#160,.T.);
#577=EDGE_CURVE($,#495,#496,#161,.T.);
#578=EDGE_CURVE($,#495,#497,#162,.T.);
#579=EDGE_CURVE($,#498,#496,#163,.T.);
#580=EDGE_CURVE($,#497,#498,#164,.T.);
#581=EDGE_CURVE($,#497,#491,#165,.T.);
#582=EDGE_CURVE($,#493,#498,#166,.T.);
#583=EDGE_CURVE($,#499,#500,#167,.T.);
#584=EDGE_CURVE($,#499,#501,#168,.T.);
#585=EDGE_CURVE($,#502,#501,#169,.T.);
#586=EDGE_CURVE($,#500,#502,#170,.T.);
#587=EDGE_CURVE($,#500,#503,#171,.T.);
#588=EDGE_CURVE($,#504,#502,#172,.T.);
#589=EDGE_CURVE($,#503,#504,#173,.T.);
#590=EDGE_CURVE($,#503,#505,#174,.T.);
#591=EDGE_CURVE($,#506,#504,#175,.T.);
#592=EDGE_CURVE($,#505,#506,#176,.T.);
#593=EDGE_CURVE($,#505,#499,#177,.T.);
#594=EDGE_CURVE($,#501,#506,#178,.T.);
#595=EDGE_CURVE($,#507,#507,#27,.T.);
#596=EDGE_CURVE($,#508,#508,#28,.T.);
#597=EDGE_CURVE($,#509,#509,#29,.T.);
#598=EDGE_CURVE($,#510,#510,#30,.T.);
#599=EDGE_CURVE($,#511,#511,#31,.T.);
#600=EDGE_CURVE($,#512,#512,#32,.T.);
#601=EDGE_CURVE($,#513,#513,#33,.T.);
#602=EDGE_CURVE($,#514,#514,#34,.T.);
#603=EDGE_CURVE($,#515,#515,#35,.T.);
#604=EDGE_CURVE($,#516,#516,#36,.T.);
#605=EDGE_CURVE($,#517,#517,#37,.T.);
#606=EDGE_CURVE($,#518,#518,#38,.T.);
#607=EDGE_CURVE($,#519,#519,#39,.T.);
#608=EDGE_CURVE($,#520,#520,#40,.T.);
#609=EDGE_CURVE($,#521,#521,#41,.T.);
#610=EDGE_CURVE($,#522,#522,#42,.T.);
#611=EDGE_CURVE($,#523,#523,#43,.T.);
#612=EDGE_CURVE($,#524,#524,#44,.T.);
#613=EDGE_CURVE($,#525,#525,#45,.T.);
#614=EDGE_CURVE($,#526,#526,#46,.T.);
#615=EDGE_CURVE($,#527,#527,#47,.T.);
#616=EDGE_CURVE($,#528,#528,#48,.T.);
#617=EDGE_CURVE($,#529,#529,#49,.T.);
#618=EDGE_CURVE($,#530,#530,#50,.T.);
#619=EDGE_CURVE($,#531,#531,#51,.T.);
#620=EDGE_CURVE($,#532,#532,#52,.T.);
#621=EDGE_CURVE($,#533,#533,#53,.T.);
#622=EDGE_CURVE($,#534,#534,#54,.T.);
#623=EDGE_CURVE($,#535,#535,#55,.T.);
#624=EDGE_CURVE($,#536,#536,#56,.T.);
#625=EDGE_CURVE($,#537,#537,#57,.T.);
#626=EDGE_CURVE($,#538,#538,#58,.T.);
#627=EDGE_CURVE($,#539,#540,#179,.T.);
#628=EDGE_CURVE($,#539,#541,#180,.T.);
#629=EDGE_CURVE($,#542,#541,#181,.T.);
#630=EDGE_CURVE($,#540,#542,#182,.T.);
#631=EDGE_CURVE($,#540,#543,#183,.T.);
#632=EDGE_CURVE($,#544,#542,#184,.T.);
#633=EDGE_CURVE($,#543,#544,#185,.T.);
#634=EDGE_CURVE($,#543,#545,#186,.T.);
#635=EDGE_CURVE($,#546,#544,#187,.T.);
#636=EDGE_CURVE($,#545,#546,#188,.T.);
#637=EDGE_CURVE($,#545,#539,#189,.T.);
#638=EDGE_CURVE($,#541,#546,#190,.T.);
#639=ORIENTED_EDGE($,*,*,#547,.F.);
#640=ORIENTED_EDGE($,*,*,#548,.T.);
#641=ORIENTED_EDGE($,*,*,#549,.F.);
#642=ORIENTED_EDGE($,*,*,#548,.F.);
#643=ORIENTED_EDGE($,*,*,#550,.F.);
#644=ORIENTED_EDGE($,*,*,#551,.T.);
#645=ORIENTED_EDGE($,*,*,#552,.F.);
#646=ORIENTED_EDGE($,*,*,#551,.F.);
#647=ORIENTED_EDGE($,*,*,#553,.F.);
#648=ORIENTED_EDGE($,*,*,#554,.T.);
#649=ORIENTED_EDGE($,*,*,#555,.F.);
#650=ORIENTED_EDGE($,*,*,#554,.F.);
#651=ORIENTED_EDGE($,*,*,#556,.F.);
#652=ORIENTED_EDGE($,*,*,#557,.T.);
#653=ORIENTED_EDGE($,*,*,#558,.F.);
#654=ORIENTED_EDGE($,*,*,#557,.F.);
#655=ORIENTED_EDGE($,*,*,#559,.F.);
#656=ORIENTED_EDGE($,*,*,#560,.T.);
#657=ORIENTED_EDGE($,*,*,#561,.F.);
#658=ORIENTED_EDGE($,*,*,#562,.F.);
#659=ORIENTED_EDGE($,*,*,#563,.F.);
#660=ORIENTED_EDGE($,*,*,#562,.T.);
#661=ORIENTED_EDGE($,*,*,#564,.F.);
#662=ORIENTED_EDGE($,*,*,#565,.F.);
#663=ORIENTED_EDGE($,*,*,#566,.F.);
#664=ORIENTED_EDGE($,*,*,#565,.T.);
#665=ORIENTED_EDGE($,*,*,#567,.F.);
#666=ORIENTED_EDGE($,*,*,#568,.F.);
#667=ORIENTED_EDGE($,*,*,#569,.F.);
#668=ORIENTED_EDGE($,*,*,#568,.T.);
#669=ORIENTED_EDGE($,*,*,#570,.F.);
#670=ORIENTED_EDGE($,*,*,#560,.F.);
#671=ORIENTED_EDGE($,*,*,#547,.T.);
#672=ORIENTED_EDGE($,*,*,#550,.T.);
#673=ORIENTED_EDGE($,*,*,#553,.T.);
#674=ORIENTED_EDGE($,*,*,#556,.T.);
#675=ORIENTED_EDGE($,*,*,#569,.T.);
#676=ORIENTED_EDGE($,*,*,#559,.T.);
#677=ORIENTED_EDGE($,*,*,#563,.T.);
#678=ORIENTED_EDGE($,*,*,#566,.T.);
#679=ORIENTED_EDGE($,*,*,#549,.T.);
#680=ORIENTED_EDGE($,*,*,#552,.T.);
#681=ORIENTED_EDGE($,*,*,#555,.T.);
#682=ORIENTED_EDGE($,*,*,#558,.T.);
#683=ORIENTED_EDGE($,*,*,#570,.T.);
#684=ORIENTED_EDGE($,*,*,#567,.T.);
#685=ORIENTED_EDGE($,*,*,#564,.T.);
#686=ORIENTED_EDGE($,*,*,#561,.T.);
#687=ORIENTED_EDGE($,*,*,#571,.F.);
#688=ORIENTED_EDGE($,*,*,#572,.T.);
#689=ORIENTED_EDGE($,*,*,#573,.F.);
#690=ORIENTED_EDGE($,*,*,#574,.F.);
#691=ORIENTED_EDGE($,*,*,#575,.F.);
#692=ORIENTED_EDGE($,*,*,#574,.T.);
#693=ORIENTED_EDGE($,*,*,#576,.F.);
#694=ORIENTED_EDGE($,*,*,#577,.F.);
#695=ORIENTED_EDGE($,*,*,#578,.F.);
#696=ORIENTED_EDGE($,*,*,#577,.T.);
#697=ORIENTED_EDGE($,*,*,#579,.F.);
#698=ORIENTED_EDGE($,*,*,#580,.F.);
#699=ORIENTED_EDGE($,*,*,#581,.F.);
#700=ORIENTED_EDGE($,*,*,#580,.T.);
#701=ORIENTED_EDGE($,*,*,#582,.F.);
#702=ORIENTED_EDGE($,*,*,#572,.F.);
#703=ORIENTED_EDGE($,*,*,#581,.T.);
#704=ORIENTED_EDGE($,*,*,#571,.T.);
#705=ORIENTED_EDGE($,*,*,#575,.T.);
#706=ORIENTED_EDGE($,*,*,#578,.T.);
#707=ORIENTED_EDGE($,*,*,#582,.T.);
#708=ORIENTED_EDGE($,*,*,#579,.T.);
#709=ORIENTED_EDGE($,*,*,#576,.T.);
#710=ORIENTED_EDGE($,*,*,#573,.T.);
#711=ORIENTED_EDGE($,*,*,#583,.F.);
#712=ORIENTED_EDGE($,*,*,#584,.T.);
#713=ORIENTED_EDGE($,*,*,#585,.F.);
#714=ORIENTED_EDGE($,*,*,#586,.F.);
#715=ORIENTED_EDGE($,*,*,#587,.F.);
#716=ORIENTED_EDGE($,*,*,#586,.T.);
#717=ORIENTED_EDGE($,*,*,#588,.F.);
#718=ORIENTED_EDGE($,*,*,#589,.F.);
#719=ORIENTED_EDGE($,*,*,#590,.F.);
#720=ORIENTED_EDGE($,*,*,#589,.T.);
#721=ORIENTED_EDGE($,*,*,#591,.F.);
#722=ORIENTED_EDGE($,*,*,#592,.F.);
#723=ORIENTED_EDGE($,*,*,#593,.F.);
#724=ORIENTED_EDGE($,*,*,#592,.T.);
#725=ORIENTED_EDGE($,*,*,#594,.F.);
#726=ORIENTED_EDGE($,*,*,#584,.F.);
#727=ORIENTED_EDGE($,*,*,#593,.T.);
#728=ORIENTED_EDGE($,*,*,#583,.T.);
#729=ORIENTED_EDGE($,*,*,#587,.T.);
#730=ORIENTED_EDGE($,*,*,#590,.T.);
#731=ORIENTED_EDGE($,*,*,#594,.T.);
#732=ORIENTED_EDGE($,*,*,#591,.T.);
#733=ORIENTED_EDGE($,*,*,#588,.T.);
#734=ORIENTED_EDGE($,*,*,#585,.T.);
#735=ORIENTED_EDGE($,*,*,#595,.F.);
#736=ORIENTED_EDGE($,*,*,#596,.F.);
#737=ORIENTED_EDGE($,*,*,#596,.T.);
#738=ORIENTED_EDGE($,*,*,#595,.T.);
#739=ORIENTED_EDGE($,*,*,#597,.F.);
#740=ORIENTED_EDGE($,*,*,#596,.F.);
#741=ORIENTED_EDGE($,*,*,#598,.F.);
#742=ORIENTED_EDGE($,*,*,#599,.F.);
#743=ORIENTED_EDGE($,*,*,#597,.T.);
#744=ORIENTED_EDGE($,*,*,#599,.T.);
#745=ORIENTED_EDGE($,*,*,#596,.T.);
#746=ORIENTED_EDGE($,*,*,#598,.T.);
#747=ORIENTED_EDGE($,*,*,#600,.F.);
#748=ORIENTED_EDGE($,*,*,#601,.F.);
#749=ORIENTED_EDGE($,*,*,#601,.T.);
#750=ORIENTED_EDGE($,*,*,#600,.T.);
#751=ORIENTED_EDGE($,*,*,#602,.F.);
#752=ORIENTED_EDGE($,*,*,#601,.F.);
#753=ORIENTED_EDGE($,*,*,#603,.F.);
#754=ORIENTED_EDGE($,*,*,#604,.F.);
#755=ORIENTED_EDGE($,*,*,#602,.T.);
#756=ORIENTED_EDGE($,*,*,#604,.T.);
#757=ORIENTED_EDGE($,*,*,#601,.T.);
#758=ORIENTED_EDGE($,*,*,#603,.T.);
#759=ORIENTED_EDGE($,*,*,#605,.F.);
#760=ORIENTED_EDGE($,*,*,#606,.F.);
#761=ORIENTED_EDGE($,*,*,#606,.T.);
#762=ORIENTED_EDGE($,*,*,#605,.T.);
#763=ORIENTED_EDGE($,*,*,#607,.F.);
#764=ORIENTED_EDGE($,*,*,#606,.F.);
#765=ORIENTED_EDGE($,*,*,#608,.F.);
#766=ORIENTED_EDGE($,*,*,#609,.F.);
#767=ORIENTED_EDGE($,*,*,#607,.T.);
#768=ORIENTED_EDGE($,*,*,#609,.T.);
#769=ORIENTED_EDGE($,*,*,#606,.T.);
#770=ORIENTED_EDGE($,*,*,#608,.T.);
#771=ORIENTED_EDGE($,*,*,#610,.F.);
#772=ORIENTED_EDGE($,*,*,#611,.F.);
#773=ORIENTED_EDGE($,*,*,#611,.T.);
#774=ORIENTED_EDGE($,*,*,#610,.T.);
#775=ORIENTED_EDGE($,*,*,#612,.F.);
#776=ORIENTED_EDGE($,*,*,#611,.F.);
#777=ORIENTED_EDGE($,*,*,#613,.F.);
#778=ORIENTED_EDGE($,*,*,#614,.F.);
#779=ORIENTED_EDGE($,*,*,#612,.T.);
#780=ORIENTED_EDGE($,*,*,#614,.T.);
#781=ORIENTED_EDGE($,*,*,#611,.T.);
#782=ORIENTED_EDGE($,*,*,#613,.T.);
#783=ORIENTED_EDGE($,*,*,#615,.F.);
#784=ORIENTED_EDGE($,*,*,#616,.F.);
#785=ORIENTED_EDGE($,*,*,#616,.T.);
#786=ORIENTED_EDGE($,*,*,#615,.T.);
#787=ORIENTED_EDGE($,*,*,#617,.F.);
#788=ORIENTED_EDGE($,*,*,#618,.F.);
#789=ORIENTED_EDGE($,*,*,#618,.T.);
#790=ORIENTED_EDGE($,*,*,#617,.T.);
#791=ORIENTED_EDGE($,*,*,#619,.F.);
#792=ORIENTED_EDGE($,*,*,#620,.F.);
#793=ORIENTED_EDGE($,*,*,#620,.T.);
#794=ORIENTED_EDGE($,*,*,#619,.T.);
#795=ORIENTED_EDGE($,*,*,#621,.F.);
#796=ORIENTED_EDGE($,*,*,#622,.F.);
#797=ORIENTED_EDGE($,*,*,#622,.T.);
#798=ORIENTED_EDGE($,*,*,#621,.T.);
#799=ORIENTED_EDGE($,*,*,#618,.F.);
#800=ORIENTED_EDGE($,*,*,#623,.F.);
#801=ORIENTED_EDGE($,*,*,#620,.F.);
#802=ORIENTED_EDGE($,*,*,#624,.F.);
#803=ORIENTED_EDGE($,*,*,#616,.F.);
#804=ORIENTED_EDGE($,*,*,#625,.F.);
#805=ORIENTED_EDGE($,*,*,#622,.F.);
#806=ORIENTED_EDGE($,*,*,#626,.F.);
#807=ORIENTED_EDGE($,*,*,#627,.F.);
#808=ORIENTED_EDGE($,*,*,#628,.T.);
#809=ORIENTED_EDGE($,*,*,#629,.F.);
#810=ORIENTED_EDGE($,*,*,#630,.F.);
#811=ORIENTED_EDGE($,*,*,#631,.F.);
#812=ORIENTED_EDGE($,*,*,#630,.T.);
#813=ORIENTED_EDGE($,*,*,#632,.F.);
#814=ORIENTED_EDGE($,*,*,#633,.F.);
#815=ORIENTED_EDGE($,*,*,#634,.F.);
#816=ORIENTED_EDGE($,*,*,#633,.T.);
#817=ORIENTED_EDGE($,*,*,#635,.F.);
#818=ORIENTED_EDGE($,*,*,#636,.F.);
#819=ORIENTED_EDGE($,*,*,#637,.F.);
#820=ORIENTED_EDGE($,*,*,#636,.T.);
#821=ORIENTED_EDGE($,*,*,#638,.F.);
#822=ORIENTED_EDGE($,*,*,#628,.F.);
#823=ORIENTED_EDGE($,*,*,#623,.T.);
#824=ORIENTED_EDGE($,*,*,#624,.T.);
#825=ORIENTED_EDGE($,*,*,#625,.T.);
#826=ORIENTED_EDGE($,*,*,#626,.T.);
#827=ORIENTED_EDGE($,*,*,#637,.T.);
#828=ORIENTED_EDGE($,*,*,#627,.T.);
#829=ORIENTED_EDGE($,*,*,#631,.T.);
#830=ORIENTED_EDGE($,*,*,#634,.T.);
#831=ORIENTED_EDGE($,*,*,#618,.T.);
#832=ORIENTED_EDGE($,*,*,#620,.T.);
#833=ORIENTED_EDGE($,*,*,#616,.T.);
#834=ORIENTED_EDGE($,*,*,#622,.T.);
#835=ORIENTED_EDGE($,*,*,#638,.T.);
#836=ORIENTED_EDGE($,*,*,#635,.T.);
#837=ORIENTED_EDGE($,*,*,#632,.T.);
#838=ORIENTED_EDGE($,*,*,#629,.T.);
#839=(
BOUNDED_SURFACE()
B_SPLINE_SURFACE(1,2,((#1407,#1408,#1409,#1410,#1411,#1412,#1413,#1414,
#1415),(#1416,#1417,#1418,#1419,#1420,#1421,#1422,#1423,#1424)),
 .UNSPECIFIED.,.F.,.T.,.F.)
B_SPLINE_SURFACE_WITH_KNOTS((2,2),(3,2,2,2,3),(0.,0.571428571428571),(-3.14159265358979,
-1.5707963267949,0.,1.5707963267949,3.14159265358979),.UNSPECIFIED.)
GEOMETRIC_REPRESENTATION_ITEM()
RATIONAL_B_SPLINE_SURFACE(((1.,0.707106781186548,1.,0.707106781186548,1.,
0.707106781186548,1.,0.707106781186548,1.),(1.,0.707106781186548,1.,0.707106781186548,
1.,0.707106781186548,1.,0.707106781186548,1.)))
REPRESENTATION_ITEM($)
SURFACE()
);
#840=(
BOUNDED_SURFACE()
B_SPLINE_SURFACE(1,2,((#1431,#1432,#1433,#1434,#1435,#1436,#1437,#1438,
#1439),(#1440,#1441,#1442,#1443,#1444,#1445,#1446,#1447,#1448)),
 .UNSPECIFIED.,.F.,.T.,.F.)
B_SPLINE_SURFACE_WITH_KNOTS((2,2),(3,2,2,2,3),(0.,0.571428571428571),(-3.14159265358979,
-1.5707963267949,0.,1.5707963267949,3.14159265358979),.UNSPECIFIED.)
GEOMETRIC_REPRESENTATION_ITEM()
RATIONAL_B_SPLINE_SURFACE(((1.,0.707106781186548,1.,0.707106781186548,1.,
0.707106781186548,1.,0.707106781186548,1.),(1.,0.707106781186548,1.,0.707106781186548,
1.,0.707106781186548,1.,0.707106781186548,1.)))
REPRESENTATION_ITEM($)
SURFACE()
);
#841=(
BOUNDED_SURFACE()
B_SPLINE_SURFACE(1,2,((#1455,#1456,#1457,#1458,#1459,#1460,#1461,#1462,
#1463),(#1464,#1465,#1466,#1467,#1468,#1469,#1470,#1471,#1472)),
 .UNSPECIFIED.,.F.,.T.,.F.)
B_SPLINE_SURFACE_WITH_KNOTS((2,2),(3,2,2,2,3),(0.,0.571428571428571),(-3.14159265358979,
-1.5707963267949,0.,1.5707963267949,3.14159265358979),.UNSPECIFIED.)
GEOMETRIC_REPRESENTATION_ITEM()
RATIONAL_B_SPLINE_SURFACE(((1.,0.707106781186548,1.,0.707106781186548,1.,
0.707106781186548,1.,0.707106781186548,1.),(1.,0.707106781186548,1.,0.707106781186548,
1.,0.707106781186548,1.,0.707106781186548,1.)))
REPRESENTATION_ITEM($)
SURFACE()
);
#842=(
BOUNDED_SURFACE()
B_SPLINE_SURFACE(1,2,((#1479,#1480,#1481,#1482,#1483,#1484,#1485,#1486,
#1487),(#1488,#1489,#1490,#1491,#1492,#1493,#1494,#1495,#1496)),
 .UNSPECIFIED.,.F.,.T.,.F.)
B_SPLINE_SURFACE_WITH_KNOTS((2,2),(3,2,2,2,3),(0.,0.571428571428571),(-3.14159265358979,
-1.5707963267949,0.,1.5707963267949,3.14159265358979),.UNSPECIFIED.)
GEOMETRIC_REPRESENTATION_ITEM()
RATIONAL_B_SPLINE_SURFACE(((1.,0.707106781186548,1.,0.707106781186548,1.,
0.707106781186548,1.,0.707106781186548,1.),(1.,0.707106781186548,1.,0.707106781186548,
1.,0.707106781186548,1.,0.707106781186548,1.)))
REPRESENTATION_ITEM($)
SURFACE()
);
#843=STYLED_ITEM($,(#1785),#919);
#844=STYLED_ITEM($,(#1785),#920);
#845=STYLED_ITEM($,(#1785),#921);
#846=STYLED_ITEM($,(#1785),#922);
#847=STYLED_ITEM($,(#1785),#923);
#848=STYLED_ITEM($,(#1785),#924);
#849=STYLED_ITEM($,(#1785),#925);
#850=STYLED_ITEM($,(#1785),#926);
#851=STYLED_ITEM($,(#1785),#927);
#852=STYLED_ITEM($,(#1785),#928);
#853=STYLED_ITEM($,(#1784),#999);
#854=STYLED_ITEM($,(#1786),#929);
#855=STYLED_ITEM($,(#1786),#930);
#856=STYLED_ITEM($,(#1786),#931);
#857=STYLED_ITEM($,(#1786),#932);
#858=STYLED_ITEM($,(#1786),#933);
#859=STYLED_ITEM($,(#1786),#934);
#860=STYLED_ITEM($,(#1784),#1000);
#861=STYLED_ITEM($,(#1787),#935);
#862=STYLED_ITEM($,(#1787),#936);
#863=STYLED_ITEM($,(#1787),#937);
#864=STYLED_ITEM($,(#1787),#938);
#865=STYLED_ITEM($,(#1787),#939);
#866=STYLED_ITEM($,(#1787),#940);
#867=STYLED_ITEM($,(#1784),#1001);
#868=STYLED_ITEM($,(#1788),#941);
#869=STYLED_ITEM($,(#1788),#942);
#870=STYLED_ITEM($,(#1788),#943);
#871=STYLED_ITEM($,(#1789),#945);
#872=STYLED_ITEM($,(#1789),#946);
#873=STYLED_ITEM($,(#1789),#947);
#874=STYLED_ITEM($,(#1788),#948);
#875=STYLED_ITEM($,(#1788),#949);
#876=STYLED_ITEM($,(#1788),#950);
#877=STYLED_ITEM($,(#1789),#952);
#878=STYLED_ITEM($,(#1789),#953);
#879=STYLED_ITEM($,(#1789),#954);
#880=STYLED_ITEM($,(#1788),#955);
#881=STYLED_ITEM($,(#1788),#956);
#882=STYLED_ITEM($,(#1788),#957);
#883=STYLED_ITEM($,(#1789),#959);
#884=STYLED_ITEM($,(#1789),#960);
#885=STYLED_ITEM($,(#1789),#961);
#886=STYLED_ITEM($,(#1788),#962);
#887=STYLED_ITEM($,(#1788),#963);
#888=STYLED_ITEM($,(#1788),#964);
#889=STYLED_ITEM($,(#1789),#966);
#890=STYLED_ITEM($,(#1789),#967);
#891=STYLED_ITEM($,(#1789),#968);
#892=STYLED_ITEM($,(#1788),#969);
#893=STYLED_ITEM($,(#1788),#970);
#894=STYLED_ITEM($,(#1788),#971);
#895=STYLED_ITEM($,(#1788),#972);
#896=STYLED_ITEM($,(#1788),#973);
#897=STYLED_ITEM($,(#1788),#974);
#898=STYLED_ITEM($,(#1788),#975);
#899=STYLED_ITEM($,(#1788),#976);
#900=STYLED_ITEM($,(#1788),#977);
#901=STYLED_ITEM($,(#1788),#978);
#902=STYLED_ITEM($,(#1788),#979);
#903=STYLED_ITEM($,(#1788),#980);
#904=STYLED_ITEM($,(#1790),#981);
#905=STYLED_ITEM($,(#1790),#982);
#906=STYLED_ITEM($,(#1790),#983);
#907=STYLED_ITEM($,(#1790),#984);
#908=STYLED_ITEM($,(#1790),#985);
#909=STYLED_ITEM($,(#1790),#986);
#910=STYLED_ITEM($,(#1790),#987);
#911=STYLED_ITEM($,(#1790),#988);
#912=STYLED_ITEM($,(#1790),#989);
#913=STYLED_ITEM($,(#1790),#990);
#914=STYLED_ITEM($,(#1784),#1002);
#915=STYLED_ITEM($,(#1784),#1003);
#916=STYLED_ITEM($,(#1784),#1004);
#917=STYLED_ITEM($,(#1784),#1005);
#918=STYLED_ITEM($,(#1784),#1006);
#919=ADVANCED_FACE($,(#287),#839,.T.);
#920=ADVANCED_FACE($,(#288),#840,.T.);
#921=ADVANCED_FACE($,(#289),#841,.T.);
#922=ADVANCED_FACE($,(#290),#842,.T.);
#923=ADVANCED_FACE($,(#291),#239,.T.);
#924=ADVANCED_FACE($,(#292),#240,.T.);
#925=ADVANCED_FACE($,(#293),#241,.T.);
#926=ADVANCED_FACE($,(#294),#242,.T.);
#927=ADVANCED_FACE($,(#87,#88,#89,#90,#91),#243,.F.);
#928=ADVANCED_FACE($,(#92,#93,#94,#95,#96),#244,.T.);
#929=ADVANCED_FACE($,(#295),#245,.T.);
#930=ADVANCED_FACE($,(#296),#246,.T.);
#931=ADVANCED_FACE($,(#297),#247,.T.);
#932=ADVANCED_FACE($,(#298),#248,.T.);
#933=ADVANCED_FACE($,(#299),#249,.F.);
#934=ADVANCED_FACE($,(#300),#250,.T.);
#935=ADVANCED_FACE($,(#301),#251,.T.);
#936=ADVANCED_FACE($,(#302),#252,.T.);
#937=ADVANCED_FACE($,(#303),#253,.T.);
#938=ADVANCED_FACE($,(#304),#254,.T.);
#939=ADVANCED_FACE($,(#305),#255,.F.);
#940=ADVANCED_FACE($,(#306),#256,.T.);
#941=ADVANCED_FACE($,(#307,#97),#59,.T.);
#942=ADVANCED_FACE($,(#308),#257,.F.);
#943=ADVANCED_FACE($,(#309),#258,.T.);
#944=ADVANCED_FACE($,(#310,#98),#60,.F.);
#945=ADVANCED_FACE($,(#311,#99),#61,.T.);
#946=ADVANCED_FACE($,(#100,#101),#259,.F.);
#947=ADVANCED_FACE($,(#102,#103),#260,.T.);
#948=ADVANCED_FACE($,(#312,#104),#62,.T.);
#949=ADVANCED_FACE($,(#313),#261,.F.);
#950=ADVANCED_FACE($,(#314),#262,.T.);
#951=ADVANCED_FACE($,(#315,#105),#63,.F.);
#952=ADVANCED_FACE($,(#316,#106),#64,.T.);
#953=ADVANCED_FACE($,(#107,#108),#263,.F.);
#954=ADVANCED_FACE($,(#109,#110),#264,.T.);
#955=ADVANCED_FACE($,(#317,#111),#65,.T.);
#956=ADVANCED_FACE($,(#318),#265,.F.);
#957=ADVANCED_FACE($,(#319),#266,.T.);
#958=ADVANCED_FACE($,(#320,#112),#66,.F.);
#959=ADVANCED_FACE($,(#321,#113),#67,.T.);
#960=ADVANCED_FACE($,(#114,#115),#267,.F.);
#961=ADVANCED_FACE($,(#116,#117),#268,.T.);
#962=ADVANCED_FACE($,(#322,#118),#68,.T.);
#963=ADVANCED_FACE($,(#323),#269,.F.);
#964=ADVANCED_FACE($,(#324),#270,.T.);
#965=ADVANCED_FACE($,(#325,#119),#69,.F.);
#966=ADVANCED_FACE($,(#326,#120),#70,.T.);
#967=ADVANCED_FACE($,(#121,#122),#271,.F.);
#968=ADVANCED_FACE($,(#123,#124),#272,.T.);
#969=ADVANCED_FACE($,(#327,#125),#71,.T.);
#970=ADVANCED_FACE($,(#328),#273,.T.);
#971=ADVANCED_FACE($,(#329),#274,.F.);
#972=ADVANCED_FACE($,(#330,#126),#72,.T.);
#973=ADVANCED_FACE($,(#331),#275,.T.);
#974=ADVANCED_FACE($,(#332),#276,.F.);
#975=ADVANCED_FACE($,(#333,#127),#73,.T.);
#976=ADVANCED_FACE($,(#334),#277,.T.);
#977=ADVANCED_FACE($,(#335),#278,.F.);
#978=ADVANCED_FACE($,(#336,#128),#74,.T.);
#979=ADVANCED_FACE($,(#337),#279,.T.);
#980=ADVANCED_FACE($,(#338),#280,.F.);
#981=ADVANCED_FACE($,(#339,#129),#75,.F.);
#982=ADVANCED_FACE($,(#340,#130),#76,.F.);
#983=ADVANCED_FACE($,(#341,#131),#77,.F.);
#984=ADVANCED_FACE($,(#342,#132),#78,.F.);
#985=ADVANCED_FACE($,(#343),#281,.T.);
#986=ADVANCED_FACE($,(#344),#282,.T.);
#987=ADVANCED_FACE($,(#345),#283,.T.);
#988=ADVANCED_FACE($,(#346),#284,.T.);
#989=ADVANCED_FACE($,(#133,#134,#135,#136,#137),#285,.T.);
#990=ADVANCED_FACE($,(#138,#139,#140,#141,#142),#286,.T.);
#991=CLOSED_SHELL($,(#919,#920,#921,#922,#923,#924,#925,#926,#927,#928));
#992=CLOSED_SHELL($,(#929,#930,#931,#932,#933,#934));
#993=CLOSED_SHELL($,(#935,#936,#937,#938,#939,#940));
#994=CLOSED_SHELL($,(#941,#942,#943,#944,#945,#946,#947));
#995=CLOSED_SHELL($,(#948,#949,#950,#951,#952,#953,#954));
#996=CLOSED_SHELL($,(#955,#956,#957,#958,#959,#960,#961));
#997=CLOSED_SHELL($,(#962,#963,#964,#965,#966,#967,#968));
#998=CLOSED_SHELL($,(#969,#970,#971,#972,#973,#974,#975,#976,#977,#978,
#979,#980,#981,#982,#983,#984,#985,#986,#987,#988,#989,#990));
#999=MANIFOLD_SOLID_BREP('\X2\04220432043504400434043E0435\X0\ \X2\0442
0435043B043E\X0\1',#991);
#1000=MANIFOLD_SOLID_BREP('\X2\04220432043504400434043E0435\X0\ \X2\0442
0435043B043E\X0\1',#992);
#1001=MANIFOLD_SOLID_BREP('\X2\04220432043504400434043E0435\X0\ \X2\0442
0435043B043E\X0\1',#993);
#1002=MANIFOLD_SOLID_BREP('\X2\04220432043504400434043E0435\X0\ \X2\0442
0435043B043E\X0\1',#994);
#1003=MANIFOLD_SOLID_BREP('\X2\04220432043504400434043E0435\X0\ \X2\0442
0435043B043E\X0\1',#995);
#1004=MANIFOLD_SOLID_BREP('\X2\04220432043504400434043E0435\X0\ \X2\0442
0435043B043E\X0\1',#996);
#1005=MANIFOLD_SOLID_BREP('\X2\04220432043504400434043E0435\X0\ \X2\0442
0435043B043E\X0\1',#997);
#1006=MANIFOLD_SOLID_BREP('\X2\04220432043504400434043E0435\X0\ \X2\0442
0435043B043E\X0\1',#998);
#1007=AXIS2_PLACEMENT_3D('placement',#1406,#1124,#1125);
#1008=AXIS2_PLACEMENT_3D($,#1426,#1126,#1127);
#1009=AXIS2_PLACEMENT_3D($,#1430,#1128,#1129);
#1010=AXIS2_PLACEMENT_3D($,#1450,#1130,#1131);
#1011=AXIS2_PLACEMENT_3D($,#1454,#1132,#1133);
#1012=AXIS2_PLACEMENT_3D($,#1474,#1134,#1135);
#1013=AXIS2_PLACEMENT_3D($,#1478,#1136,#1137);
#1014=AXIS2_PLACEMENT_3D($,#1498,#1138,#1139);
#1015=AXIS2_PLACEMENT_3D($,#1502,#1140,#1141);
#1016=AXIS2_PLACEMENT_3D($,#1503,#1142,#1143);
#1017=AXIS2_PLACEMENT_3D($,#1512,#1148,#1149);
#1018=AXIS2_PLACEMENT_3D($,#1518,#1153,#1154);
#1019=AXIS2_PLACEMENT_3D($,#1524,#1158,#1159);
#1020=AXIS2_PLACEMENT_3D($,#1527,#1162,#1163);
#1021=AXIS2_PLACEMENT_3D($,#1528,#1164,#1165);
#1022=AXIS2_PLACEMENT_3D('placement',#1529,#1166,#1167);
#1023=AXIS2_PLACEMENT_3D($,#1530,#1168,#1169);
#1024=AXIS2_PLACEMENT_3D($,#1539,#1174,#1175);
#1025=AXIS2_PLACEMENT_3D($,#1545,#1179,#1180);
#1026=AXIS2_PLACEMENT_3D($,#1551,#1184,#1185);
#1027=AXIS2_PLACEMENT_3D($,#1554,#1188,#1189);
#1028=AXIS2_PLACEMENT_3D($,#1555,#1190,#1191);
#1029=AXIS2_PLACEMENT_3D('placement',#1556,#1192,#1193);
#1030=AXIS2_PLACEMENT_3D($,#1557,#1194,#1195);
#1031=AXIS2_PLACEMENT_3D($,#1566,#1200,#1201);
#1032=AXIS2_PLACEMENT_3D($,#1572,#1205,#1206);
#1033=AXIS2_PLACEMENT_3D($,#1578,#1210,#1211);
#1034=AXIS2_PLACEMENT_3D($,#1581,#1214,#1215);
#1035=AXIS2_PLACEMENT_3D($,#1582,#1216,#1217);
#1036=AXIS2_PLACEMENT_3D('placement',#1583,#1218,#1219);
#1037=AXIS2_PLACEMENT_3D($,#1584,#1220,#1221);
#1038=AXIS2_PLACEMENT_3D($,#1586,#1222,#1223);
#1039=AXIS2_PLACEMENT_3D($,#1588,#1224,#1225);
#1040=AXIS2_PLACEMENT_3D($,#1589,#1226,#1227);
#1041=AXIS2_PLACEMENT_3D($,#1590,#1228,#1229);
#1042=AXIS2_PLACEMENT_3D($,#1591,#1230,#1231);
#1043=AXIS2_PLACEMENT_3D($,#1593,#1232,#1233);
#1044=AXIS2_PLACEMENT_3D($,#1594,#1234,#1235);
#1045=AXIS2_PLACEMENT_3D($,#1596,#1236,#1237);
#1046=AXIS2_PLACEMENT_3D($,#1598,#1238,#1239);
#1047=AXIS2_PLACEMENT_3D($,#1599,#1240,#1241);
#1048=AXIS2_PLACEMENT_3D($,#1600,#1242,#1243);
#1049=AXIS2_PLACEMENT_3D($,#1601,#1244,#1245);
#1050=AXIS2_PLACEMENT_3D($,#1603,#1246,#1247);
#1051=AXIS2_PLACEMENT_3D($,#1605,#1248,#1249);
#1052=AXIS2_PLACEMENT_3D($,#1606,#1250,#1251);
#1053=AXIS2_PLACEMENT_3D($,#1607,#1252,#1253);
#1054=AXIS2_PLACEMENT_3D($,#1608,#1254,#1255);
#1055=AXIS2_PLACEMENT_3D($,#1610,#1256,#1257);
#1056=AXIS2_PLACEMENT_3D($,#1611,#1258,#1259);
#1057=AXIS2_PLACEMENT_3D($,#1613,#1260,#1261);
#1058=AXIS2_PLACEMENT_3D($,#1615,#1262,#1263);
#1059=AXIS2_PLACEMENT_3D($,#1616,#1264,#1265);
#1060=AXIS2_PLACEMENT_3D($,#1617,#1266,#1267);
#1061=AXIS2_PLACEMENT_3D($,#1618,#1268,#1269);
#1062=AXIS2_PLACEMENT_3D($,#1620,#1270,#1271);
#1063=AXIS2_PLACEMENT_3D($,#1622,#1272,#1273);
#1064=AXIS2_PLACEMENT_3D($,#1623,#1274,#1275);
#1065=AXIS2_PLACEMENT_3D($,#1624,#1276,#1277);
#1066=AXIS2_PLACEMENT_3D($,#1625,#1278,#1279);
#1067=AXIS2_PLACEMENT_3D($,#1627,#1280,#1281);
#1068=AXIS2_PLACEMENT_3D($,#1628,#1282,#1283);
#1069=AXIS2_PLACEMENT_3D($,#1630,#1284,#1285);
#1070=AXIS2_PLACEMENT_3D($,#1632,#1286,#1287);
#1071=AXIS2_PLACEMENT_3D($,#1633,#1288,#1289);
#1072=AXIS2_PLACEMENT_3D($,#1634,#1290,#1291);
#1073=AXIS2_PLACEMENT_3D($,#1635,#1292,#1293);
#1074=AXIS2_PLACEMENT_3D($,#1637,#1294,#1295);
#1075=AXIS2_PLACEMENT_3D($,#1639,#1296,#1297);
#1076=AXIS2_PLACEMENT_3D($,#1640,#1298,#1299);
#1077=AXIS2_PLACEMENT_3D($,#1641,#1300,#1301);
#1078=AXIS2_PLACEMENT_3D($,#1642,#1302,#1303);
#1079=AXIS2_PLACEMENT_3D($,#1644,#1304,#1305);
#1080=AXIS2_PLACEMENT_3D($,#1645,#1306,#1307);
#1081=AXIS2_PLACEMENT_3D($,#1647,#1308,#1309);
#1082=AXIS2_PLACEMENT_3D($,#1649,#1310,#1311);
#1083=AXIS2_PLACEMENT_3D($,#1650,#1312,#1313);
#1084=AXIS2_PLACEMENT_3D($,#1651,#1314,#1315);
#1085=AXIS2_PLACEMENT_3D($,#1652,#1316,#1317);
#1086=AXIS2_PLACEMENT_3D($,#1654,#1318,#1319);
#1087=AXIS2_PLACEMENT_3D($,#1656,#1320,#1321);
#1088=AXIS2_PLACEMENT_3D($,#1657,#1322,#1323);
#1089=AXIS2_PLACEMENT_3D($,#1658,#1324,#1325);
#1090=AXIS2_PLACEMENT_3D($,#1659,#1326,#1327);
#1091=AXIS2_PLACEMENT_3D($,#1661,#1328,#1329);
#1092=AXIS2_PLACEMENT_3D($,#1663,#1330,#1331);
#1093=AXIS2_PLACEMENT_3D($,#1664,#1332,#1333);
#1094=AXIS2_PLACEMENT_3D($,#1665,#1334,#1335);
#1095=AXIS2_PLACEMENT_3D($,#1666,#1336,#1337);
#1096=AXIS2_PLACEMENT_3D($,#1668,#1338,#1339);
#1097=AXIS2_PLACEMENT_3D($,#1670,#1340,#1341);
#1098=AXIS2_PLACEMENT_3D($,#1671,#1342,#1343);
#1099=AXIS2_PLACEMENT_3D($,#1672,#1344,#1345);
#1100=AXIS2_PLACEMENT_3D($,#1673,#1346,#1347);
#1101=AXIS2_PLACEMENT_3D($,#1675,#1348,#1349);
#1102=AXIS2_PLACEMENT_3D($,#1677,#1350,#1351);
#1103=AXIS2_PLACEMENT_3D($,#1678,#1352,#1353);
#1104=AXIS2_PLACEMENT_3D($,#1679,#1354,#1355);
#1105=AXIS2_PLACEMENT_3D($,#1680,#1356,#1357);
#1106=AXIS2_PLACEMENT_3D($,#1682,#1358,#1359);
#1107=AXIS2_PLACEMENT_3D($,#1683,#1360,#1361);
#1108=AXIS2_PLACEMENT_3D($,#1685,#1362,#1363);
#1109=AXIS2_PLACEMENT_3D($,#1686,#1364,#1365);
#1110=AXIS2_PLACEMENT_3D($,#1688,#1366,#1367);
#1111=AXIS2_PLACEMENT_3D($,#1689,#1368,#1369);
#1112=AXIS2_PLACEMENT_3D($,#1691,#1370,#1371);
#1113=AXIS2_PLACEMENT_3D($,#1692,#1372,#1373);
#1114=AXIS2_PLACEMENT_3D($,#1701,#1378,#1379);
#1115=AXIS2_PLACEMENT_3D($,#1707,#1383,#1384);
#1116=AXIS2_PLACEMENT_3D($,#1713,#1388,#1389);
#1117=AXIS2_PLACEMENT_3D($,#1716,#1392,#1393);
#1118=AXIS2_PLACEMENT_3D($,#1717,#1394,#1395);
#1119=AXIS2_PLACEMENT_3D('placement',#1718,#1396,#1397);
#1120=AXIS2_PLACEMENT_3D($,#1719,#1398,#1399);
#1121=AXIS2_PLACEMENT_3D($,#1720,#1400,#1401);
#1122=AXIS2_PLACEMENT_3D($,#1721,#1402,#1403);
#1123=AXIS2_PLACEMENT_3D($,#1722,#1404,#1405);
#1124=DIRECTION('axis',(0.,0.,1.));
#1125=DIRECTION('refdir',(1.,0.,0.));
#1126=DIRECTION('center_axis',(0.,0.,1.));
#1127=DIRECTION('ref_axis',(-1.,-8.22387425648264E-017,0.));
#1128=DIRECTION('center_axis',(0.,0.,-1.));
#1129=DIRECTION('ref_axis',(-1.,-8.22387425648264E-017,0.));
#1130=DIRECTION('center_axis',(0.,0.,1.));
#1131=DIRECTION('ref_axis',(1.,2.04703422479562E-016,0.));
#1132=DIRECTION('center_axis',(0.,0.,-1.));
#1133=DIRECTION('ref_axis',(1.,2.04703422479562E-016,0.));
#1134=DIRECTION('center_axis',(0.,0.,1.));
#1135=DIRECTION('ref_axis',(-1.,2.46519032881566E-032,0.));
#1136=DIRECTION('center_axis',(0.,0.,-1.));
#1137=DIRECTION('ref_axis',(-1.,2.46519032881566E-032,0.));
#1138=DIRECTION('center_axis',(0.,0.,1.));
#1139=DIRECTION('ref_axis',(1.,1.22464679914735E-016,0.));
#1140=DIRECTION('center_axis',(0.,0.,-1.));
#1141=DIRECTION('ref_axis',(1.,1.22464679914735E-016,0.));
#1142=DIRECTION('center_axis',(1.,0.,0.));
#1143=DIRECTION('ref_axis',(0.,1.,0.));
#1144=DIRECTION($,(0.,-1.,0.));
#1145=DIRECTION($,(0.,0.,1.));
#1146=DIRECTION($,(0.,1.,0.));
#1147=DIRECTION($,(0.,0.,1.));
#1148=DIRECTION('center_axis',(1.64477485129653E-016,-1.,0.));
#1149=DIRECTION('ref_axis',(1.,1.64477485129653E-016,0.));
#1150=DIRECTION($,(-1.,-1.64477485129653E-016,0.));
#1151=DIRECTION($,(1.,1.64477485129653E-016,0.));
#1152=DIRECTION($,(0.,0.,1.));
#1153=DIRECTION('center_axis',(-1.,-3.26536183713281E-016,0.));
#1154=DIRECTION('ref_axis',(3.5527136788005E-016,-1.,0.));
#1155=DIRECTION($,(-3.26536183713281E-016,1.,0.));
#1156=DIRECTION($,(3.26536183713281E-016,-1.,0.));
#1157=DIRECTION($,(0.,0.,1.));
#1158=DIRECTION('center_axis',(0.,1.,0.));
#1159=DIRECTION('ref_axis',(-1.,0.,0.));
#1160=DIRECTION($,(1.,0.,0.));
#1161=DIRECTION($,(-1.,0.,0.));
#1162=DIRECTION('center_axis',(0.,0.,1.));
#1163=DIRECTION('ref_axis',(1.,0.,0.));
#1164=DIRECTION('center_axis',(0.,0.,1.));
#1165=DIRECTION('ref_axis',(1.,0.,0.));
#1166=DIRECTION('axis',(0.,0.,1.));
#1167=DIRECTION('refdir',(1.,0.,0.));
#1168=DIRECTION('center_axis',(1.,0.,0.));
#1169=DIRECTION('ref_axis',(0.,1.,0.));
#1170=DIRECTION($,(0.,-1.,0.));
#1171=DIRECTION($,(0.,0.,1.));
#1172=DIRECTION($,(0.,1.,0.));
#1173=DIRECTION($,(0.,0.,1.));
#1174=DIRECTION('center_axis',(1.64477485129653E-016,-1.,0.));
#1175=DIRECTION('ref_axis',(1.,1.77635683940025E-016,0.));
#1176=DIRECTION($,(-1.,-1.64477485129653E-016,0.));
#1177=DIRECTION($,(1.,1.64477485129653E-016,0.));
#1178=DIRECTION($,(0.,0.,1.));
#1179=DIRECTION('center_axis',(-1.,-2.27738056333365E-016,0.));
#1180=DIRECTION('ref_axis',(1.77635683940025E-016,-1.,0.));
#1181=DIRECTION($,(-2.27738056333365E-016,1.,0.));
#1182=DIRECTION($,(2.27738056333365E-016,-1.,0.));
#1183=DIRECTION($,(0.,0.,1.));
#1184=DIRECTION('center_axis',(0.,1.,0.));
#1185=DIRECTION('ref_axis',(-1.,0.,0.));
#1186=DIRECTION($,(1.,0.,0.));
#1187=DIRECTION($,(-1.,0.,0.));
#1188=DIRECTION('center_axis',(0.,0.,1.));
#1189=DIRECTION('ref_axis',(1.,0.,0.));
#1190=DIRECTION('center_axis',(0.,0.,1.));
#1191=DIRECTION('ref_axis',(1.,0.,0.));
#1192=DIRECTION('axis',(0.,0.,1.));
#1193=DIRECTION('refdir',(1.,0.,0.));
#1194=DIRECTION('center_axis',(1.,0.,0.));
#1195=DIRECTION('ref_axis',(0.,1.,0.));
#1196=DIRECTION($,(0.,-1.,0.));
#1197=DIRECTION($,(0.,0.,1.));
#1198=DIRECTION($,(0.,1.,0.));
#1199=DIRECTION($,(0.,0.,1.));
#1200=DIRECTION('center_axis',(8.4730447462528E-017,-1.,0.));
#1201=DIRECTION('ref_axis',(1.,8.88178419700125E-017,0.));
#1202=DIRECTION($,(-1.,-8.4730447462528E-017,0.));
#1203=DIRECTION($,(1.,8.4730447462528E-017,0.));
#1204=DIRECTION($,(0.,0.,1.));
#1205=DIRECTION('center_axis',(-1.,-2.96059473233375E-016,0.));
#1206=DIRECTION('ref_axis',(3.5527136788005E-016,-1.,0.));
#1207=DIRECTION($,(-2.96059473233375E-016,1.,0.));
#1208=DIRECTION($,(2.96059473233375E-016,-1.,0.));
#1209=DIRECTION($,(0.,0.,1.));
#1210=DIRECTION('center_axis',(0.,1.,0.));
#1211=DIRECTION('ref_axis',(-1.,0.,0.));
#1212=DIRECTION($,(1.,0.,0.));
#1213=DIRECTION($,(-1.,0.,0.));
#1214=DIRECTION('center_axis',(0.,0.,1.));
#1215=DIRECTION('ref_axis',(1.,0.,0.));
#1216=DIRECTION('center_axis',(0.,0.,1.));
#1217=DIRECTION('ref_axis',(1.,0.,0.));
#1218=DIRECTION('axis',(0.,0.,1.));
#1219=DIRECTION('refdir',(1.,0.,0.));
#1220=DIRECTION('center_axis',(0.,0.,1.));
#1221=DIRECTION('ref_axis',(-1.,0.,0.));
#1222=DIRECTION('center_axis',(0.,0.,1.));
#1223=DIRECTION('ref_axis',(-1.,0.,0.));
#1224=DIRECTION('center_axis',(0.,0.,-1.));
#1225=DIRECTION('ref_axis',(1.,0.,0.));
#1226=DIRECTION('center_axis',(0.,0.,1.));
#1227=DIRECTION('ref_axis',(1.,0.,0.));
#1228=DIRECTION('center_axis',(0.,0.,1.));
#1229=DIRECTION('ref_axis',(1.,0.,0.));
#1230=DIRECTION('center_axis',(0.,0.,1.));
#1231=DIRECTION('ref_axis',(1.,0.,0.));
#1232=DIRECTION('center_axis',(0.,0.,1.));
#1233=DIRECTION('ref_axis',(1.,0.,0.));
#1234=DIRECTION('center_axis',(0.,0.,1.));
#1235=DIRECTION('ref_axis',(-1.,0.,0.));
#1236=DIRECTION('center_axis',(0.,0.,1.));
#1237=DIRECTION('ref_axis',(-1.,0.,0.));
#1238=DIRECTION('center_axis',(0.,0.,-1.));
#1239=DIRECTION('ref_axis',(-1.,0.,0.));
#1240=DIRECTION('center_axis',(0.,0.,1.));
#1241=DIRECTION('ref_axis',(1.,0.,0.));
#1242=DIRECTION('center_axis',(0.,0.,1.));
#1243=DIRECTION('ref_axis',(1.,0.,0.));
#1244=DIRECTION('center_axis',(0.,0.,1.));
#1245=DIRECTION('ref_axis',(-1.,0.,0.));
#1246=DIRECTION('center_axis',(0.,0.,1.));
#1247=DIRECTION('ref_axis',(-1.,0.,0.));
#1248=DIRECTION('center_axis',(0.,0.,-1.));
#1249=DIRECTION('ref_axis',(1.,0.,0.));
#1250=DIRECTION('center_axis',(0.,0.,1.));
#1251=DIRECTION('ref_axis',(1.,0.,0.));
#1252=DIRECTION('center_axis',(0.,0.,1.));
#1253=DIRECTION('ref_axis',(1.,0.,0.));
#1254=DIRECTION('center_axis',(0.,0.,1.));
#1255=DIRECTION('ref_axis',(1.,0.,0.));
#1256=DIRECTION('center_axis',(0.,0.,1.));
#1257=DIRECTION('ref_axis',(1.,0.,0.));
#1258=DIRECTION('center_axis',(0.,0.,1.));
#1259=DIRECTION('ref_axis',(-1.,0.,0.));
#1260=DIRECTION('center_axis',(0.,0.,1.));
#1261=DIRECTION('ref_axis',(-1.,0.,0.));
#1262=DIRECTION('center_axis',(0.,0.,-1.));
#1263=DIRECTION('ref_axis',(-1.,0.,0.));
#1264=DIRECTION('center_axis',(0.,0.,1.));
#1265=DIRECTION('ref_axis',(1.,0.,0.));
#1266=DIRECTION('center_axis',(0.,0.,1.));
#1267=DIRECTION('ref_axis',(1.,0.,0.));
#1268=DIRECTION('center_axis',(0.,0.,1.));
#1269=DIRECTION('ref_axis',(-1.,0.,0.));
#1270=DIRECTION('center_axis',(0.,0.,1.));
#1271=DIRECTION('ref_axis',(-1.,0.,0.));
#1272=DIRECTION('center_axis',(0.,0.,-1.));
#1273=DIRECTION('ref_axis',(1.,0.,0.));
#1274=DIRECTION('center_axis',(0.,0.,1.));
#1275=DIRECTION('ref_axis',(1.,0.,0.));
#1276=DIRECTION('center_axis',(0.,0.,1.));
#1277=DIRECTION('ref_axis',(1.,0.,0.));
#1278=DIRECTION('center_axis',(0.,0.,1.));
#1279=DIRECTION('ref_axis',(1.,0.,0.));
#1280=DIRECTION('center_axis',(0.,0.,1.));
#1281=DIRECTION('ref_axis',(1.,0.,0.));
#1282=DIRECTION('center_axis',(0.,0.,1.));
#1283=DIRECTION('ref_axis',(-1.,0.,0.));
#1284=DIRECTION('center_axis',(0.,0.,1.));
#1285=DIRECTION('ref_axis',(-1.,0.,0.));
#1286=DIRECTION('center_axis',(0.,0.,-1.));
#1287=DIRECTION('ref_axis',(-1.,0.,0.));
#1288=DIRECTION('center_axis',(0.,0.,1.));
#1289=DIRECTION('ref_axis',(1.,0.,0.));
#1290=DIRECTION('center_axis',(0.,0.,1.));
#1291=DIRECTION('ref_axis',(1.,0.,0.));
#1292=DIRECTION('center_axis',(0.,0.,1.));
#1293=DIRECTION('ref_axis',(-1.,0.,0.));
#1294=DIRECTION('center_axis',(0.,0.,1.));
#1295=DIRECTION('ref_axis',(-1.,0.,0.));
#1296=DIRECTION('center_axis',(0.,0.,-1.));
#1297=DIRECTION('ref_axis',(1.,0.,0.));
#1298=DIRECTION('center_axis',(0.,0.,1.));
#1299=DIRECTION('ref_axis',(1.,0.,0.));
#1300=DIRECTION('center_axis',(0.,0.,1.));
#1301=DIRECTION('ref_axis',(1.,0.,0.));
#1302=DIRECTION('center_axis',(0.,0.,1.));
#1303=DIRECTION('ref_axis',(1.,0.,0.));
#1304=DIRECTION('center_axis',(0.,0.,1.));
#1305=DIRECTION('ref_axis',(1.,0.,0.));
#1306=DIRECTION('center_axis',(0.,0.,1.));
#1307=DIRECTION('ref_axis',(-1.,0.,0.));
#1308=DIRECTION('center_axis',(0.,0.,1.));
#1309=DIRECTION('ref_axis',(-1.,0.,0.));
#1310=DIRECTION('center_axis',(0.,0.,-1.));
#1311=DIRECTION('ref_axis',(-1.,0.,0.));
#1312=DIRECTION('center_axis',(0.,0.,1.));
#1313=DIRECTION('ref_axis',(1.,0.,0.));
#1314=DIRECTION('center_axis',(0.,0.,1.));
#1315=DIRECTION('ref_axis',(1.,0.,0.));
#1316=DIRECTION('center_axis',(0.,0.,-1.));
#1317=DIRECTION('ref_axis',(1.,0.,0.));
#1318=DIRECTION('center_axis',(0.,0.,-1.));
#1319=DIRECTION('ref_axis',(1.,0.,0.));
#1320=DIRECTION('center_axis',(0.,0.,1.));
#1321=DIRECTION('ref_axis',(1.,0.,0.));
#1322=DIRECTION('center_axis',(0.,0.,1.));
#1323=DIRECTION('ref_axis',(1.,0.,0.));
#1324=DIRECTION('center_axis',(0.,0.,1.));
#1325=DIRECTION('ref_axis',(1.,0.,0.));
#1326=DIRECTION('center_axis',(0.,0.,-1.));
#1327=DIRECTION('ref_axis',(1.,0.,0.));
#1328=DIRECTION('center_axis',(0.,0.,-1.));
#1329=DIRECTION('ref_axis',(1.,0.,0.));
#1330=DIRECTION('center_axis',(0.,0.,1.));
#1331=DIRECTION('ref_axis',(1.,0.,0.));
#1332=DIRECTION('center_axis',(0.,0.,1.));
#1333=DIRECTION('ref_axis',(1.,0.,0.));
#1334=DIRECTION('center_axis',(0.,0.,1.));
#1335=DIRECTION('ref_axis',(1.,0.,0.));
#1336=DIRECTION('center_axis',(0.,0.,-1.));
#1337=DIRECTION('ref_axis',(1.,0.,0.));
#1338=DIRECTION('center_axis',(0.,0.,-1.));
#1339=DIRECTION('ref_axis',(1.,0.,0.));
#1340=DIRECTION('center_axis',(0.,0.,1.));
#1341=DIRECTION('ref_axis',(1.,0.,0.));
#1342=DIRECTION('center_axis',(0.,0.,1.));
#1343=DIRECTION('ref_axis',(1.,0.,0.));
#1344=DIRECTION('center_axis',(0.,0.,1.));
#1345=DIRECTION('ref_axis',(1.,0.,0.));
#1346=DIRECTION('center_axis',(0.,0.,-1.));
#1347=DIRECTION('ref_axis',(1.,0.,0.));
#1348=DIRECTION('center_axis',(0.,0.,-1.));
#1349=DIRECTION('ref_axis',(1.,0.,0.));
#1350=DIRECTION('center_axis',(0.,0.,1.));
#1351=DIRECTION('ref_axis',(1.,0.,0.));
#1352=DIRECTION('center_axis',(0.,0.,1.));
#1353=DIRECTION('ref_axis',(1.,0.,0.));
#1354=DIRECTION('center_axis',(0.,0.,1.));
#1355=DIRECTION('ref_axis',(1.,0.,0.));
#1356=DIRECTION('center_axis',(0.,0.,-1.));
#1357=DIRECTION('ref_axis',(1.,0.,0.));
#1358=DIRECTION('center_axis',(0.,0.,-1.));
#1359=DIRECTION('ref_axis',(1.,0.,0.));
#1360=DIRECTION('center_axis',(0.,0.,-1.));
#1361=DIRECTION('ref_axis',(1.,0.,0.));
#1362=DIRECTION('center_axis',(0.,0.,-1.));
#1363=DIRECTION('ref_axis',(1.,0.,0.));
#1364=DIRECTION('center_axis',(0.,0.,-1.));
#1365=DIRECTION('ref_axis',(1.,0.,0.));
#1366=DIRECTION('center_axis',(0.,0.,-1.));
#1367=DIRECTION('ref_axis',(1.,0.,0.));
#1368=DIRECTION('center_axis',(0.,0.,-1.));
#1369=DIRECTION('ref_axis',(1.,0.,0.));
#1370=DIRECTION('center_axis',(0.,0.,-1.));
#1371=DIRECTION('ref_axis',(1.,0.,0.));
#1372=DIRECTION('center_axis',(-1.,4.37095678986282E-016,0.));
#1373=DIRECTION('ref_axis',(4.44089209850063E-016,1.,0.));
#1374=DIRECTION($,(-4.37095678986282E-016,-1.,0.));
#1375=DIRECTION($,(0.,0.,-1.));
#1376=DIRECTION($,(4.37095678986282E-016,1.,0.));
#1377=DIRECTION($,(0.,0.,-1.));
#1378=DIRECTION('center_axis',(-4.37095678986282E-016,-1.,0.));
#1379=DIRECTION('ref_axis',(-1.,3.5527136788005E-016,0.));
#1380=DIRECTION($,(1.,-4.37095678986282E-016,0.));
#1381=DIRECTION($,(-1.,4.37095678986282E-016,0.));
#1382=DIRECTION($,(0.,0.,-1.));
#1383=DIRECTION('center_axis',(1.,-4.37095678986282E-016,0.));
#1384=DIRECTION('ref_axis',(-4.44089209850063E-016,-1.,0.));
#1385=DIRECTION($,(4.37095678986282E-016,1.,0.));
#1386=DIRECTION($,(-4.37095678986282E-016,-1.,0.));
#1387=DIRECTION($,(0.,0.,-1.));
#1388=DIRECTION('center_axis',(0.,1.,0.));
#1389=DIRECTION('ref_axis',(1.,0.,0.));
#1390=DIRECTION($,(-1.,0.,0.));
#1391=DIRECTION($,(1.,0.,0.));
#1392=DIRECTION('center_axis',(0.,0.,1.));
#1393=DIRECTION('ref_axis',(1.,0.,0.));
#1394=DIRECTION('center_axis',(0.,0.,-1.));
#1395=DIRECTION('ref_axis',(-1.,0.,0.));
#1396=DIRECTION('axis',(0.,0.,1.));
#1397=DIRECTION('refdir',(1.,0.,0.));
#1398=DIRECTION($,(0.,0.,1.));
#1399=DIRECTION($,(1.,0.,0.));
#1400=DIRECTION($,(0.,0.,1.));
#1401=DIRECTION($,(1.,0.,0.));
#1402=DIRECTION($,(0.,0.,1.));
#1403=DIRECTION($,(1.,0.,0.));
#1404=DIRECTION($,(0.,0.,1.));
#1405=DIRECTION($,(1.,0.,0.));
#1406=CARTESIAN_POINT('',(0.,0.,0.));
#1407=CARTESIAN_POINT('Ctrl Pts',(-22.15,1.85,0.));
#1408=CARTESIAN_POINT('Ctrl Pts',(-22.15,3.1,0.));
#1409=CARTESIAN_POINT('Ctrl Pts',(-23.9,3.09999999999999,0.));
#1410=CARTESIAN_POINT('Ctrl Pts',(-25.65,3.09999999999999,0.));
#1411=CARTESIAN_POINT('Ctrl Pts',(-25.65,1.85,0.));
#1412=CARTESIAN_POINT('Ctrl Pts',(-25.65,0.599999999999997,0.));
#1413=CARTESIAN_POINT('Ctrl Pts',(-23.9,0.599999999999998,0.));
#1414=CARTESIAN_POINT('Ctrl Pts',(-22.15,0.599999999999998,0.));
#1415=CARTESIAN_POINT('Ctrl Pts',(-22.15,1.85,0.));
#1416=CARTESIAN_POINT('Ctrl Pts',(-22.15,1.85,1.));
#1417=CARTESIAN_POINT('Ctrl Pts',(-22.15,3.1,1.));
#1418=CARTESIAN_POINT('Ctrl Pts',(-23.9,3.09999999999999,1.));
#1419=CARTESIAN_POINT('Ctrl Pts',(-25.65,3.09999999999999,1.));
#1420=CARTESIAN_POINT('Ctrl Pts',(-25.65,1.85,1.));
#1421=CARTESIAN_POINT('Ctrl Pts',(-25.65,0.599999999999997,1.));
#1422=CARTESIAN_POINT('Ctrl Pts',(-23.9,0.599999999999998,1.));
#1423=CARTESIAN_POINT('Ctrl Pts',(-22.15,0.599999999999998,1.));
#1424=CARTESIAN_POINT('Ctrl Pts',(-22.15,1.85,1.));
#1425=CARTESIAN_POINT('',(-22.15,1.85,0.));
#1426=CARTESIAN_POINT('Origin',(-23.9,1.85,0.));
#1427=CARTESIAN_POINT('',(-22.15,1.85,1.));
#1428=CARTESIAN_POINT('Ctrl Pts',(-22.15,1.85,0.));
#1429=CARTESIAN_POINT('Ctrl Pts',(-22.15,1.85,1.));
#1430=CARTESIAN_POINT('Origin',(-23.9,1.85,1.));
#1431=CARTESIAN_POINT('Ctrl Pts',(-4.85,1.85,0.));
#1432=CARTESIAN_POINT('Ctrl Pts',(-4.85,0.599999999999998,0.));
#1433=CARTESIAN_POINT('Ctrl Pts',(-3.1,0.599999999999998,0.));
#1434=CARTESIAN_POINT('Ctrl Pts',(-1.35,0.599999999999998,0.));
#1435=CARTESIAN_POINT('Ctrl Pts',(-1.35,1.85,0.));
#1436=CARTESIAN_POINT('Ctrl Pts',(-1.35,3.1,0.));
#1437=CARTESIAN_POINT('Ctrl Pts',(-3.1,3.1,0.));
#1438=CARTESIAN_POINT('Ctrl Pts',(-4.85,3.1,0.));
#1439=CARTESIAN_POINT('Ctrl Pts',(-4.85,1.85,0.));
#1440=CARTESIAN_POINT('Ctrl Pts',(-4.85,1.85,1.));
#1441=CARTESIAN_POINT('Ctrl Pts',(-4.85,0.599999999999998,1.));
#1442=CARTESIAN_POINT('Ctrl Pts',(-3.1,0.599999999999998,1.));
#1443=CARTESIAN_POINT('Ctrl Pts',(-1.35,0.599999999999998,1.));
#1444=CARTESIAN_POINT('Ctrl Pts',(-1.35,1.85,1.));
#1445=CARTESIAN_POINT('Ctrl Pts',(-1.35,3.1,1.));
#1446=CARTESIAN_POINT('Ctrl Pts',(-3.1,3.1,1.));
#1447=CARTESIAN_POINT('Ctrl Pts',(-4.85,3.1,1.));
#1448=CARTESIAN_POINT('Ctrl Pts',(-4.85,1.85,1.));
#1449=CARTESIAN_POINT('',(-4.85,1.85,0.));
#1450=CARTESIAN_POINT('Origin',(-3.1,1.85,0.));
#1451=CARTESIAN_POINT('',(-4.85,1.85,1.));
#1452=CARTESIAN_POINT('Ctrl Pts',(-4.85,1.85,0.));
#1453=CARTESIAN_POINT('Ctrl Pts',(-4.85,1.85,1.));
#1454=CARTESIAN_POINT('Origin',(-3.1,1.85,1.));
#1455=CARTESIAN_POINT('Ctrl Pts',(-22.15,25.35,0.));
#1456=CARTESIAN_POINT('Ctrl Pts',(-22.15,26.6,0.));
#1457=CARTESIAN_POINT('Ctrl Pts',(-23.9,26.6,0.));
#1458=CARTESIAN_POINT('Ctrl Pts',(-25.65,26.6,0.));
#1459=CARTESIAN_POINT('Ctrl Pts',(-25.65,25.35,0.));
#1460=CARTESIAN_POINT('Ctrl Pts',(-25.65,24.1,0.));
#1461=CARTESIAN_POINT('Ctrl Pts',(-23.9,24.1,0.));
#1462=CARTESIAN_POINT('Ctrl Pts',(-22.15,24.1,0.));
#1463=CARTESIAN_POINT('Ctrl Pts',(-22.15,25.35,0.));
#1464=CARTESIAN_POINT('Ctrl Pts',(-22.15,25.35,1.));
#1465=CARTESIAN_POINT('Ctrl Pts',(-22.15,26.6,1.));
#1466=CARTESIAN_POINT('Ctrl Pts',(-23.9,26.6,1.));
#1467=CARTESIAN_POINT('Ctrl Pts',(-25.65,26.6,1.));
#1468=CARTESIAN_POINT('Ctrl Pts',(-25.65,25.35,1.));
#1469=CARTESIAN_POINT('Ctrl Pts',(-25.65,24.1,1.));
#1470=CARTESIAN_POINT('Ctrl Pts',(-23.9,24.1,1.));
#1471=CARTESIAN_POINT('Ctrl Pts',(-22.15,24.1,1.));
#1472=CARTESIAN_POINT('Ctrl Pts',(-22.15,25.35,1.));
#1473=CARTESIAN_POINT('',(-22.15,25.35,0.));
#1474=CARTESIAN_POINT('Origin',(-23.9,25.35,0.));
#1475=CARTESIAN_POINT('',(-22.15,25.35,1.));
#1476=CARTESIAN_POINT('Ctrl Pts',(-22.15,25.35,0.));
#1477=CARTESIAN_POINT('Ctrl Pts',(-22.15,25.35,1.));
#1478=CARTESIAN_POINT('Origin',(-23.9,25.35,1.));
#1479=CARTESIAN_POINT('Ctrl Pts',(-4.85,25.35,0.));
#1480=CARTESIAN_POINT('Ctrl Pts',(-4.85,24.1,0.));
#1481=CARTESIAN_POINT('Ctrl Pts',(-3.1,24.1,0.));
#1482=CARTESIAN_POINT('Ctrl Pts',(-1.35,24.1,0.));
#1483=CARTESIAN_POINT('Ctrl Pts',(-1.35,25.35,0.));
#1484=CARTESIAN_POINT('Ctrl Pts',(-1.35,26.6,0.));
#1485=CARTESIAN_POINT('Ctrl Pts',(-3.1,26.6,0.));
#1486=CARTESIAN_POINT('Ctrl Pts',(-4.85,26.6,0.));
#1487=CARTESIAN_POINT('Ctrl Pts',(-4.85,25.35,0.));
#1488=CARTESIAN_POINT('Ctrl Pts',(-4.85,25.35,1.));
#1489=CARTESIAN_POINT('Ctrl Pts',(-4.85,24.1,1.));
#1490=CARTESIAN_POINT('Ctrl Pts',(-3.1,24.1,1.));
#1491=CARTESIAN_POINT('Ctrl Pts',(-1.35,24.1,1.));
#1492=CARTESIAN_POINT('Ctrl Pts',(-1.35,25.35,1.));
#1493=CARTESIAN_POINT('Ctrl Pts',(-1.35,26.6,1.));
#1494=CARTESIAN_POINT('Ctrl Pts',(-3.1,26.6,1.));
#1495=CARTESIAN_POINT('Ctrl Pts',(-4.85,26.6,1.));
#1496=CARTESIAN_POINT('Ctrl Pts',(-4.85,25.35,1.));
#1497=CARTESIAN_POINT('',(-4.85,25.35,0.));
#1498=CARTESIAN_POINT('Origin',(-3.1,25.35,0.));
#1499=CARTESIAN_POINT('',(-4.85,25.35,1.));
#1500=CARTESIAN_POINT('Ctrl Pts',(-4.85,25.35,0.));
#1501=CARTESIAN_POINT('Ctrl Pts',(-4.85,25.35,1.));
#1502=CARTESIAN_POINT('Origin',(-3.1,25.35,1.));
#1503=CARTESIAN_POINT('Origin',(0.,0.,0.));
#1504=CARTESIAN_POINT('',(0.,27.2,0.));
#1505=CARTESIAN_POINT('',(0.,0.,0.));
#1506=CARTESIAN_POINT($,(0.,27.2,0.));
#1507=CARTESIAN_POINT('',(0.,27.2,1.));
#1508=CARTESIAN_POINT($,(0.,27.2,0.));
#1509=CARTESIAN_POINT('',(0.,0.,1.));
#1510=CARTESIAN_POINT($,(0.,27.2,1.));
#1511=CARTESIAN_POINT($,(0.,0.,0.));
#1512=CARTESIAN_POINT('Origin',(-27.,-4.44089209850063E-015,0.));
#1513=CARTESIAN_POINT('',(-27.,-4.44089209850063E-015,0.));
#1514=CARTESIAN_POINT($,(0.,0.,0.));
#1515=CARTESIAN_POINT('',(-27.,-4.44089209850063E-015,1.));
#1516=CARTESIAN_POINT($,(0.,0.,1.));
#1517=CARTESIAN_POINT($,(-27.,-4.44089209850063E-015,0.));
#1518=CARTESIAN_POINT('Origin',(-27.,27.2,0.));
#1519=CARTESIAN_POINT('',(-27.,27.2,0.));
#1520=CARTESIAN_POINT($,(-27.,-4.44089209850063E-015,0.));
#1521=CARTESIAN_POINT('',(-27.,27.2,1.));
#1522=CARTESIAN_POINT($,(-27.,-4.44089209850063E-015,1.));
#1523=CARTESIAN_POINT($,(-27.,27.2,0.));
#1524=CARTESIAN_POINT('Origin',(0.,27.2,0.));
#1525=CARTESIAN_POINT($,(-27.,27.2,0.));
#1526=CARTESIAN_POINT($,(-27.,27.2,1.));
#1527=CARTESIAN_POINT('Origin',(-13.5,13.6,0.));
#1528=CARTESIAN_POINT('Origin',(-13.5,13.6,1.));
#1529=CARTESIAN_POINT('',(0.,0.,0.));
#1530=CARTESIAN_POINT('Origin',(13.4985025326144,-10.05,0.));
#1531=CARTESIAN_POINT('',(13.4985025326144,9.45,0.));
#1532=CARTESIAN_POINT('',(13.4985025326144,-10.05,0.));
#1533=CARTESIAN_POINT($,(13.4985025326144,9.45,0.));
#1534=CARTESIAN_POINT('',(13.4985025326144,9.45,1.5));
#1535=CARTESIAN_POINT($,(13.4985025326144,9.45,0.));
#1536=CARTESIAN_POINT('',(13.4985025326144,-10.05,1.5));
#1537=CARTESIAN_POINT($,(13.4985025326144,9.45,1.5));
#1538=CARTESIAN_POINT($,(13.4985025326144,-10.05,0.));
#1539=CARTESIAN_POINT('Origin',(-13.5014974673856,-10.05,0.));
#1540=CARTESIAN_POINT('',(-13.5014974673856,-10.05,0.));
#1541=CARTESIAN_POINT($,(13.4985025326144,-10.05,0.));
#1542=CARTESIAN_POINT('',(-13.5014974673856,-10.05,1.5));
#1543=CARTESIAN_POINT($,(13.4985025326144,-10.05,1.5));
#1544=CARTESIAN_POINT($,(-13.5014974673856,-10.05,0.));
#1545=CARTESIAN_POINT('Origin',(-13.5014974673856,9.45,0.));
#1546=CARTESIAN_POINT('',(-13.5014974673856,9.45,0.));
#1547=CARTESIAN_POINT($,(-13.5014974673856,-10.05,0.));
#1548=CARTESIAN_POINT('',(-13.5014974673856,9.45,1.5));
#1549=CARTESIAN_POINT($,(-13.5014974673856,-10.05,1.5));
#1550=CARTESIAN_POINT($,(-13.5014974673856,9.45,0.));
#1551=CARTESIAN_POINT('Origin',(13.4985025326144,9.45,0.));
#1552=CARTESIAN_POINT($,(-13.5014974673856,9.45,0.));
#1553=CARTESIAN_POINT($,(-13.5014974673856,9.45,1.5));
#1554=CARTESIAN_POINT('Origin',(-0.00149746738563749,-0.3,0.));
#1555=CARTESIAN_POINT('Origin',(-0.00149746738563827,-0.3,1.5));
#1556=CARTESIAN_POINT('',(0.,0.,0.));
#1557=CARTESIAN_POINT('Origin',(12.7,-5.25,0.));
#1558=CARTESIAN_POINT('',(12.7,9.75,0.));
#1559=CARTESIAN_POINT('',(12.7,-5.25,0.));
#1560=CARTESIAN_POINT($,(12.7,9.75,0.));
#1561=CARTESIAN_POINT('',(12.7,9.75,0.35));
#1562=CARTESIAN_POINT($,(12.7,9.75,0.));
#1563=CARTESIAN_POINT('',(12.7,-5.25,0.35));
#1564=CARTESIAN_POINT($,(12.7,9.75,0.35));
#1565=CARTESIAN_POINT($,(12.7,-5.25,0.));
#1566=CARTESIAN_POINT('Origin',(-13.5059993278367,-5.25,0.));
#1567=CARTESIAN_POINT('',(-13.5059993278367,-5.25,0.));
#1568=CARTESIAN_POINT($,(12.7,-5.25,0.));
#1569=CARTESIAN_POINT('',(-13.5059993278367,-5.25,0.35));
#1570=CARTESIAN_POINT($,(12.7,-5.25,0.35));
#1571=CARTESIAN_POINT($,(-13.5059993278367,-5.25,0.));
#1572=CARTESIAN_POINT('Origin',(-13.5059993278367,9.75,0.));
#1573=CARTESIAN_POINT('',(-13.5059993278367,9.75,0.));
#1574=CARTESIAN_POINT($,(-13.5059993278367,-5.25,0.));
#1575=CARTESIAN_POINT('',(-13.5059993278367,9.75,0.35));
#1576=CARTESIAN_POINT($,(-13.5059993278367,-5.25,0.35));
#1577=CARTESIAN_POINT($,(-13.5059993278367,9.75,0.));
#1578=CARTESIAN_POINT('Origin',(12.7,9.75,0.));
#1579=CARTESIAN_POINT($,(-13.5059993278367,9.75,0.));
#1580=CARTESIAN_POINT($,(-13.5059993278367,9.75,0.35));
#1581=CARTESIAN_POINT('Origin',(-0.402999663918356,2.25,0.));
#1582=CARTESIAN_POINT('Origin',(-0.402999663918358,2.25,0.35));
#1583=CARTESIAN_POINT('',(0.,0.,0.));
#1584=CARTESIAN_POINT('Origin',(3.86196083398343,11.6328578558979,0.1));
#1585=CARTESIAN_POINT('',(4.41196083398343,11.6328578558979,1.1));
#1586=CARTESIAN_POINT('Origin',(3.86196083398343,11.6328578558979,1.1));
#1587=CARTESIAN_POINT('',(4.41196083398343,11.6328578558979,0.0999999999999987));
#1588=CARTESIAN_POINT('Origin',(3.86196083398343,11.6328578558979,0.099999999999999));
#1589=CARTESIAN_POINT('Origin',(3.86196083398343,11.6328578558979,0.1));
#1590=CARTESIAN_POINT('Origin',(3.86196083398343,11.6328578558979,1.1));
#1591=CARTESIAN_POINT('Origin',(3.86196083398343,11.6328578558979,-9.96391573891594));
#1592=CARTESIAN_POINT('',(3.31196083398343,11.6328578558979,0.));
#1593=CARTESIAN_POINT('Origin',(3.86196083398343,11.6328578558979,0.));
#1594=CARTESIAN_POINT('Origin',(3.81,11.6,0.));
#1595=CARTESIAN_POINT('',(4.91,11.6,0.1));
#1596=CARTESIAN_POINT('Origin',(3.81,11.6,0.1));
#1597=CARTESIAN_POINT('',(4.91,11.6,0.));
#1598=CARTESIAN_POINT('Origin',(3.81,11.6,0.));
#1599=CARTESIAN_POINT('Origin',(3.81,11.6,0.));
#1600=CARTESIAN_POINT('Origin',(3.81,11.6,0.1));
#1601=CARTESIAN_POINT('Origin',(-1.27,11.6,0.1));
#1602=CARTESIAN_POINT('',(-0.720000000000001,11.6,1.1));
#1603=CARTESIAN_POINT('Origin',(-1.27,11.6,1.1));
#1604=CARTESIAN_POINT('',(-0.720000000000001,11.6,0.1));
#1605=CARTESIAN_POINT('Origin',(-1.27,11.6,0.1));
#1606=CARTESIAN_POINT('Origin',(-1.27,11.6,0.1));
#1607=CARTESIAN_POINT('Origin',(-1.27,11.6,1.1));
#1608=CARTESIAN_POINT('Origin',(-1.27,11.6,-2.4));
#1609=CARTESIAN_POINT('',(-1.82,11.6,0.));
#1610=CARTESIAN_POINT('Origin',(-1.27,11.6,0.));
#1611=CARTESIAN_POINT('Origin',(-1.27,11.6,0.));
#1612=CARTESIAN_POINT('',(-0.170000000000001,11.6,0.1));
#1613=CARTESIAN_POINT('Origin',(-1.27,11.6,0.1));
#1614=CARTESIAN_POINT('',(-0.170000000000001,11.6,0.));
#1615=CARTESIAN_POINT('Origin',(-1.27,11.6,0.));
#1616=CARTESIAN_POINT('Origin',(-1.27,11.6,0.));
#1617=CARTESIAN_POINT('Origin',(-1.27,11.6,0.1));
#1618=CARTESIAN_POINT('Origin',(-3.76849123944179,11.62781875747,0.1));
#1619=CARTESIAN_POINT('',(-3.21849123944179,11.62781875747,1.1));
#1620=CARTESIAN_POINT('Origin',(-3.76849123944179,11.62781875747,1.1));
#1621=CARTESIAN_POINT('',(-3.21849123944179,11.62781875747,0.0999999999999987));
#1622=CARTESIAN_POINT('Origin',(-3.76849123944179,11.62781875747,0.099999999999999));
#1623=CARTESIAN_POINT('Origin',(-3.76849123944179,11.62781875747,0.1));
#1624=CARTESIAN_POINT('Origin',(-3.76849123944179,11.62781875747,1.1));
#1625=CARTESIAN_POINT('Origin',(-3.76849123944179,11.62781875747,-9.96391573891594));
#1626=CARTESIAN_POINT('',(-4.31849123944179,11.62781875747,0.));
#1627=CARTESIAN_POINT('Origin',(-3.76849123944179,11.62781875747,0.));
#1628=CARTESIAN_POINT('Origin',(-3.81,11.6,0.));
#1629=CARTESIAN_POINT('',(-2.71,11.6,0.1));
#1630=CARTESIAN_POINT('Origin',(-3.81,11.6,0.1));
#1631=CARTESIAN_POINT('',(-2.71,11.6,0.));
#1632=CARTESIAN_POINT('Origin',(-3.81,11.6,0.));
#1633=CARTESIAN_POINT('Origin',(-3.81,11.6,0.));
#1634=CARTESIAN_POINT('Origin',(-3.81,11.6,0.1));
#1635=CARTESIAN_POINT('Origin',(1.27,11.6,0.1));
#1636=CARTESIAN_POINT('',(1.82,11.6,1.1));
#1637=CARTESIAN_POINT('Origin',(1.27,11.6,1.1));
#1638=CARTESIAN_POINT('',(1.82,11.6,0.1));
#1639=CARTESIAN_POINT('Origin',(1.27,11.6,0.1));
#1640=CARTESIAN_POINT('Origin',(1.27,11.6,0.1));
#1641=CARTESIAN_POINT('Origin',(1.27,11.6,1.1));
#1642=CARTESIAN_POINT('Origin',(1.27,11.6,-9.96391573891594));
#1643=CARTESIAN_POINT('',(0.719999999999999,11.6,0.));
#1644=CARTESIAN_POINT('Origin',(1.27,11.6,0.));
#1645=CARTESIAN_POINT('Origin',(1.27,11.6,0.));
#1646=CARTESIAN_POINT('',(2.37,11.6,0.1));
#1647=CARTESIAN_POINT('Origin',(1.27,11.6,0.1));
#1648=CARTESIAN_POINT('',(2.37,11.6,0.));
#1649=CARTESIAN_POINT('Origin',(1.27,11.6,0.));
#1650=CARTESIAN_POINT('Origin',(1.27,11.6,0.));
#1651=CARTESIAN_POINT('Origin',(1.27,11.6,0.1));
#1652=CARTESIAN_POINT('Origin',(1.27,11.6,-3.54));
#1653=CARTESIAN_POINT('',(0.719999999999999,11.6,-9.54));
#1654=CARTESIAN_POINT('Origin',(1.27,11.6,-9.54));
#1655=CARTESIAN_POINT('',(0.719999999999999,11.6,-3.54));
#1656=CARTESIAN_POINT('Origin',(1.27,11.6,-3.54));
#1657=CARTESIAN_POINT('Origin',(1.27,11.6,-3.54));
#1658=CARTESIAN_POINT('Origin',(1.27,11.6,-9.54));
#1659=CARTESIAN_POINT('Origin',(-3.76849123944179,11.62781875747,-3.54));
#1660=CARTESIAN_POINT('',(-4.31849123944179,11.62781875747,-9.54));
#1661=CARTESIAN_POINT('Origin',(-3.76849123944179,11.62781875747,-9.54));
#1662=CARTESIAN_POINT('',(-4.31849123944179,11.62781875747,-3.54));
#1663=CARTESIAN_POINT('Origin',(-3.76849123944179,11.62781875747,-3.54));
#1664=CARTESIAN_POINT('Origin',(-3.76849123944179,11.62781875747,-3.54));
#1665=CARTESIAN_POINT('Origin',(-3.76849123944179,11.62781875747,-9.54));
#1666=CARTESIAN_POINT('Origin',(3.86196083398343,11.6328578558979,-3.54));
#1667=CARTESIAN_POINT('',(3.31196083398343,11.6328578558979,-9.54));
#1668=CARTESIAN_POINT('Origin',(3.86196083398343,11.6328578558979,-9.54));
#1669=CARTESIAN_POINT('',(3.31196083398343,11.6328578558979,-3.54));
#1670=CARTESIAN_POINT('Origin',(3.86196083398343,11.6328578558979,-3.54));
#1671=CARTESIAN_POINT('Origin',(3.86196083398343,11.6328578558979,-3.54));
#1672=CARTESIAN_POINT('Origin',(3.86196083398343,11.6328578558979,-9.54));
#1673=CARTESIAN_POINT('Origin',(-1.27,11.6,-3.54));
#1674=CARTESIAN_POINT('',(-1.82,11.6,-9.54));
#1675=CARTESIAN_POINT('Origin',(-1.27,11.6,-9.54));
#1676=CARTESIAN_POINT('',(-1.82,11.6,-3.54));
#1677=CARTESIAN_POINT('Origin',(-1.27,11.6,-3.54));
#1678=CARTESIAN_POINT('Origin',(-1.27,11.6,-3.54));
#1679=CARTESIAN_POINT('Origin',(-1.27,11.6,-9.54));
#1680=CARTESIAN_POINT('Origin',(-3.76849123944179,11.62781875747,-1.));
#1681=CARTESIAN_POINT('',(-4.31849123944179,11.62781875747,-1.));
#1682=CARTESIAN_POINT('Origin',(-3.76849123944179,11.62781875747,-1.));
#1683=CARTESIAN_POINT('Origin',(3.86196083398343,11.6328578558979,-1.));
#1684=CARTESIAN_POINT('',(3.31196083398343,11.6328578558979,-1.));
#1685=CARTESIAN_POINT('Origin',(3.86196083398343,11.6328578558979,-1.));
#1686=CARTESIAN_POINT('Origin',(1.27,11.6,-1.));
#1687=CARTESIAN_POINT('',(0.719999999999999,11.6,-1.));
#1688=CARTESIAN_POINT('Origin',(1.27,11.6,-1.));
#1689=CARTESIAN_POINT('Origin',(-1.27,11.6,-1.));
#1690=CARTESIAN_POINT('',(-1.82,11.6,-1.));
#1691=CARTESIAN_POINT('Origin',(-1.27,11.6,-1.));
#1692=CARTESIAN_POINT('Origin',(-5.08,10.33,-1.));
#1693=CARTESIAN_POINT('',(-5.08,12.87,-1.));
#1694=CARTESIAN_POINT('',(-5.08,10.33,-1.));
#1695=CARTESIAN_POINT($,(-5.08,12.87,-1.));
#1696=CARTESIAN_POINT('',(-5.08,12.87,-3.54));
#1697=CARTESIAN_POINT($,(-5.08,12.87,-1.));
#1698=CARTESIAN_POINT('',(-5.08,10.33,-3.54));
#1699=CARTESIAN_POINT($,(-5.08,12.87,-3.54));
#1700=CARTESIAN_POINT($,(-5.08,10.33,-1.));
#1701=CARTESIAN_POINT('Origin',(5.07999999999999,10.33,-1.));
#1702=CARTESIAN_POINT('',(5.07999999999999,10.33,-1.));
#1703=CARTESIAN_POINT($,(-5.08,10.33,-1.));
#1704=CARTESIAN_POINT('',(5.07999999999999,10.33,-3.54));
#1705=CARTESIAN_POINT($,(-5.08,10.33,-3.54));
#1706=CARTESIAN_POINT($,(5.07999999999999,10.33,-1.));
#1707=CARTESIAN_POINT('Origin',(5.08,12.87,-1.));
#1708=CARTESIAN_POINT('',(5.08,12.87,-1.));
#1709=CARTESIAN_POINT($,(5.07999999999999,10.33,-1.));
#1710=CARTESIAN_POINT('',(5.08,12.87,-3.54));
#1711=CARTESIAN_POINT($,(5.07999999999999,10.33,-3.54));
#1712=CARTESIAN_POINT($,(5.08,12.87,-1.));
#1713=CARTESIAN_POINT('Origin',(-5.08,12.87,-1.));
#1714=CARTESIAN_POINT($,(5.08,12.87,-1.));
#1715=CARTESIAN_POINT($,(5.08,12.87,-3.54));
#1716=CARTESIAN_POINT('Origin',(-6.55643518479423E-016,11.6,-1.));
#1717=CARTESIAN_POINT('Origin',(-1.11022302462516E-015,11.6,-3.54));
#1718=CARTESIAN_POINT('',(0.,0.,0.));
#1719=CARTESIAN_POINT($,(0.493827159131124,2.40740737153424,0.));
#1720=CARTESIAN_POINT($,(-13.0061728408689,16.0074073715342,1.));
#1721=CARTESIAN_POINT($,(-13.0076703082545,15.7074073715342,2.5));
#1722=CARTESIAN_POINT($,(-13.0061728408689,16.0074073715342,1.));
#1723=UNCERTAINTY_MEASURE_WITH_UNIT(LENGTH_MEASURE(0.01),#1735,
'DISTANCE_ACCURACY_VALUE',
'Maximum model space distance between geometric entities at asserted c
onnectivities');
#1724=UNCERTAINTY_MEASURE_WITH_UNIT(LENGTH_MEASURE(0.01),#1735,
'DISTANCE_ACCURACY_VALUE',
'Maximum model space distance between geometric entities at asserted c
onnectivities');
#1725=UNCERTAINTY_MEASURE_WITH_UNIT(LENGTH_MEASURE(0.01),#1735,
'DISTANCE_ACCURACY_VALUE',
'Maximum model space distance between geometric entities at asserted c
onnectivities');
#1726=UNCERTAINTY_MEASURE_WITH_UNIT(LENGTH_MEASURE(0.01),#1735,
'DISTANCE_ACCURACY_VALUE',
'Maximum model space distance between geometric entities at asserted c
onnectivities');
#1727=UNCERTAINTY_MEASURE_WITH_UNIT(LENGTH_MEASURE(0.01),#1735,
'DISTANCE_ACCURACY_VALUE',
'Maximum model space distance between geometric entities at asserted c
onnectivities');
#1728=UNCERTAINTY_MEASURE_WITH_UNIT(LENGTH_MEASURE(1.E-006),#1735,
'DISTANCE_ACCURACY_VALUE',
'Maximum model space distance between geometric entities at asserted c
onnectivities');
#1729=(
GEOMETRIC_REPRESENTATION_CONTEXT(3)
GLOBAL_UNCERTAINTY_ASSIGNED_CONTEXT((#1723))
GLOBAL_UNIT_ASSIGNED_CONTEXT((#1735,#1738,#1736))
REPRESENTATION_CONTEXT('','3D')
);
#1730=(
GEOMETRIC_REPRESENTATION_CONTEXT(3)
GLOBAL_UNCERTAINTY_ASSIGNED_CONTEXT((#1724))
GLOBAL_UNIT_ASSIGNED_CONTEXT((#1735,#1738,#1736))
REPRESENTATION_CONTEXT('','3D')
);
#1731=(
GEOMETRIC_REPRESENTATION_CONTEXT(3)
GLOBAL_UNCERTAINTY_ASSIGNED_CONTEXT((#1725))
GLOBAL_UNIT_ASSIGNED_CONTEXT((#1735,#1738,#1736))
REPRESENTATION_CONTEXT('','3D')
);
#1732=(
GEOMETRIC_REPRESENTATION_CONTEXT(3)
GLOBAL_UNCERTAINTY_ASSIGNED_CONTEXT((#1726))
GLOBAL_UNIT_ASSIGNED_CONTEXT((#1735,#1738,#1736))
REPRESENTATION_CONTEXT('','3D')
);
#1733=(
GEOMETRIC_REPRESENTATION_CONTEXT(3)
GLOBAL_UNCERTAINTY_ASSIGNED_CONTEXT((#1727))
GLOBAL_UNIT_ASSIGNED_CONTEXT((#1735,#1738,#1736))
REPRESENTATION_CONTEXT('','3D')
);
#1734=(
GEOMETRIC_REPRESENTATION_CONTEXT(3)
GLOBAL_UNCERTAINTY_ASSIGNED_CONTEXT((#1728))
GLOBAL_UNIT_ASSIGNED_CONTEXT((#1735,#1738,#1736))
REPRESENTATION_CONTEXT('','3D')
);
#1735=(
LENGTH_UNIT()
NAMED_UNIT(*)
SI_UNIT(.MILLI.,.METRE.)
);
#1736=(
NAMED_UNIT(*)
SI_UNIT($,.STERADIAN.)
SOLID_ANGLE_UNIT()
);
#1737=DIMENSIONAL_EXPONENTS(0.,0.,0.,0.,0.,0.,0.);
#1738=(
CONVERSION_BASED_UNIT('degree',#1740)
NAMED_UNIT(#1737)
PLANE_ANGLE_UNIT()
);
#1739=(
NAMED_UNIT(*)
PLANE_ANGLE_UNIT()
SI_UNIT($,.RADIAN.)
);
#1740=PLANE_ANGLE_MEASURE_WITH_UNIT(PLANE_ANGLE_MEASURE(0.01745329252),
#1739);
#1741=SHAPE_DEFINITION_REPRESENTATION(#1746,#1755);
#1742=SHAPE_DEFINITION_REPRESENTATION(#1747,#1756);
#1743=SHAPE_DEFINITION_REPRESENTATION(#1748,#1757);
#1744=SHAPE_DEFINITION_REPRESENTATION(#1749,#1758);
#1745=SHAPE_DEFINITION_REPRESENTATION(#1750,#1759);
#1746=PRODUCT_DEFINITION_SHAPE('',$,#1761);
#1747=PRODUCT_DEFINITION_SHAPE('',$,#1762);
#1748=PRODUCT_DEFINITION_SHAPE('',$,#1763);
#1749=PRODUCT_DEFINITION_SHAPE('',$,#1764);
#1750=PRODUCT_DEFINITION_SHAPE('',$,#1765);
#1751=PRODUCT_DEFINITION_SHAPE($,$,#23);
#1752=PRODUCT_DEFINITION_SHAPE($,$,#24);
#1753=PRODUCT_DEFINITION_SHAPE($,$,#25);
#1754=PRODUCT_DEFINITION_SHAPE($,$,#26);
#1755=SHAPE_REPRESENTATION('',(#1007),#1729);
#1756=SHAPE_REPRESENTATION('',(#1022),#1730);
#1757=SHAPE_REPRESENTATION('',(#1029),#1731);
#1758=SHAPE_REPRESENTATION('',(#1036),#1732);
#1759=SHAPE_REPRESENTATION('',(#1119,#1120,#1121,#1122,#1123),#1733);
#1760=PRODUCT_DEFINITION_CONTEXT('part definition',#1777,'design');
#1761=PRODUCT_DEFINITION('Plata','Plata',#1766,#1760);
#1762=PRODUCT_DEFINITION('Ekran','Ekran',#1767,#1760);
#1763=PRODUCT_DEFINITION('DISPLEJ','DISPLEJ',#1768,#1760);
#1764=PRODUCT_DEFINITION('HEDR','HEDR',#1769,#1760);
#1765=PRODUCT_DEFINITION('128X64_LCD_LED','128X64_LCD_LED',#1770,#1760);
#1766=PRODUCT_DEFINITION_FORMATION('',$,#1779);
#1767=PRODUCT_DEFINITION_FORMATION('',$,#1780);
#1768=PRODUCT_DEFINITION_FORMATION('',$,#1781);
#1769=PRODUCT_DEFINITION_FORMATION('',$,#1782);
#1770=PRODUCT_DEFINITION_FORMATION('',$,#1783);
#1771=PRODUCT_RELATED_PRODUCT_CATEGORY('Plata','Plata',(#1779));
#1772=PRODUCT_RELATED_PRODUCT_CATEGORY('Ekran','Ekran',(#1780));
#1773=PRODUCT_RELATED_PRODUCT_CATEGORY('DISPLEJ','DISPLEJ',(#1781));
#1774=PRODUCT_RELATED_PRODUCT_CATEGORY('HEDR','HEDR',(#1782));
#1775=PRODUCT_RELATED_PRODUCT_CATEGORY('128X64_LCD_LED',
'128X64_LCD_LED',(#1783));
#1776=APPLICATION_PROTOCOL_DEFINITION('international standard',
'automotive_design',2009,#1777);
#1777=APPLICATION_CONTEXT(
'Core Data for Automotive Mechanical Design Process');
#1778=PRODUCT_CONTEXT('part definition',#1777,'mechanical');
#1779=PRODUCT('Plata','Plata',$,(#1778));
#1780=PRODUCT('Ekran','Ekran',$,(#1778));
#1781=PRODUCT('DISPLEJ','DISPLEJ',$,(#1778));
#1782=PRODUCT('HEDR','HEDR',$,(#1778));
#1783=PRODUCT('128X64_LCD_LED','128X64_LCD_LED',$,(#1778));
#1784=PRESENTATION_STYLE_ASSIGNMENT((#1791));
#1785=PRESENTATION_STYLE_ASSIGNMENT((#1792));
#1786=PRESENTATION_STYLE_ASSIGNMENT((#1793));
#1787=PRESENTATION_STYLE_ASSIGNMENT((#1794));
#1788=PRESENTATION_STYLE_ASSIGNMENT((#1795));
#1789=PRESENTATION_STYLE_ASSIGNMENT((#1796));
#1790=PRESENTATION_STYLE_ASSIGNMENT((#1797));
#1791=SURFACE_STYLE_USAGE(.BOTH.,#1798);
#1792=SURFACE_STYLE_USAGE(.BOTH.,#1799);
#1793=SURFACE_STYLE_USAGE(.BOTH.,#1800);
#1794=SURFACE_STYLE_USAGE(.BOTH.,#1801);
#1795=SURFACE_STYLE_USAGE(.BOTH.,#1802);
#1796=SURFACE_STYLE_USAGE(.BOTH.,#1803);
#1797=SURFACE_STYLE_USAGE(.BOTH.,#1804);
#1798=SURFACE_SIDE_STYLE($,(#1805));
#1799=SURFACE_SIDE_STYLE($,(#1806));
#1800=SURFACE_SIDE_STYLE($,(#1807));
#1801=SURFACE_SIDE_STYLE($,(#1808));
#1802=SURFACE_SIDE_STYLE($,(#1809));
#1803=SURFACE_SIDE_STYLE($,(#1810));
#1804=SURFACE_SIDE_STYLE($,(#1811));
#1805=SURFACE_STYLE_FILL_AREA(#1812);
#1806=SURFACE_STYLE_FILL_AREA(#1813);
#1807=SURFACE_STYLE_FILL_AREA(#1814);
#1808=SURFACE_STYLE_FILL_AREA(#1815);
#1809=SURFACE_STYLE_FILL_AREA(#1816);
#1810=SURFACE_STYLE_FILL_AREA(#1817);
#1811=SURFACE_STYLE_FILL_AREA(#1818);
#1812=FILL_AREA_STYLE($,(#1819));
#1813=FILL_AREA_STYLE($,(#1820));
#1814=FILL_AREA_STYLE($,(#1821));
#1815=FILL_AREA_STYLE($,(#1822));
#1816=FILL_AREA_STYLE($,(#1823));
#1817=FILL_AREA_STYLE($,(#1824));
#1818=FILL_AREA_STYLE($,(#1825));
#1819=FILL_AREA_STYLE_COLOUR($,#1826);
#1820=FILL_AREA_STYLE_COLOUR($,#1827);
#1821=FILL_AREA_STYLE_COLOUR($,#1828);
#1822=FILL_AREA_STYLE_COLOUR($,#1829);
#1823=FILL_AREA_STYLE_COLOUR($,#1830);
#1824=FILL_AREA_STYLE_COLOUR($,#1831);
#1825=FILL_AREA_STYLE_COLOUR($,#1832);
#1826=COLOUR_RGB('',0.749019607843137,0.749019607843137,0.749019607843137);
#1827=COLOUR_RGB('',0.552941176470588,0.713725490196078,0.92156862745098);
#1828=COLOUR_RGB('',0.949019607843137,0.949019607843137,1.);
#1829=COLOUR_RGB('',0.0196078431372549,0.0196078431372549,0.0196078431372549);
#1830=COLOUR_RGB('',1.,0.8,0.2);
#1831=COLOUR_RGB('',0.701960784313725,0.552941176470588,0.00392156862745098);
#1832=COLOUR_RGB('',0.,0.,0.);
ENDSEC;
END-ISO-10303-21;
